<?xml version="1.0" standalone="no"?>
<!DOCTYPE svg PUBLIC "-//W3C//DTD SVG 1.1//EN" "http://www.w3.org/Graphics/SVG/1.1/DTD/svg11.dtd" >
<svg xmlns="http://www.w3.org/2000/svg">
<metadata>
This is a custom SVG webfont generated by Font Squirrel.
Designer    : Hannes von Dhren
Foundry     : Hannes von Dhren
</metadata>
<defs>
<font id="webfont0e5KwZQc" horiz-adv-x="645" >
<font-face units-per-em="1000" ascent="750" descent="-250" />
<missing-glyph horiz-adv-x="432" />
<glyph unicode=" "  horiz-adv-x="432" />
<glyph unicode="&#x09;" horiz-adv-x="432" />
<glyph unicode="&#xa0;" horiz-adv-x="432" />
<glyph unicode="!" horiz-adv-x="308" d="M112 304q-5 6 -25 71.5t-40 162t-20 161.5q12 8 106.5 8t142.5 -10q0 -105 -18.5 -202.5t-37 -144.5t-25.5 -48q-10 -2 -33 -2h-13q-34 1 -37 4zM155 198q41 0 72.5 -30t31.5 -69q0 -45 -23 -76t-70 -31q-51 0 -79 27q-30 29 -30 78q0 45 28 73q29 28 70 28z" />
<glyph unicode="&#x22;" horiz-adv-x="444" d="M67 495q-2 2 -7 59l-8 114l-3 57q11 4 51.5 4t75.5 -1.5t35 -2.5q0 -2 -25.5 -118t-26.5 -116q-88 0 -92 4zM251 737q-1 0 9 0.5t30 -0.5q41 -1 82 -3q40 -2 40 -3t-7 -29l-50 -202q-52 -2 -78 -2t-27 2q-2 2 -2 77v43q1 116 3 117z" />
<glyph unicode="#" horiz-adv-x="612" d="M227 699l103 6q9 0 9 -1q0 -3 -27 -112.5t-27 -110.5t15 -1t46 1q60 2 65 3q3 1 23.5 105.5t20.5 110.5q0 4 102 4q2 0 -11 -55l-26 -109q-11 -45 -11 -52q0 -2 1 -2t4 0.5t10 1t16 0.5h14q39 -1 39 -4q0 -8 -4 -56t-6 -48t-49 2l-47 1l-26 -108q91 -3 91 -9 q0 -91 -4 -91q-94 0 -98 -6l-46 -176q-98 1 -98 3q0 5 34 173q0 1 -12.5 1.5t-31 0t-37 -1.5t-31.5 -1l-14 -1l-22 -85q-22 -84 -23 -84l-86 6l35 170l-65 -7q-15 0 -16 3t-1 13q0 11 2 32q3 39 7 40q2 1 25 5l43 6l21 4q0 2 13.5 56.5t14.5 54.5l-86 -2q-8 1 -9 2 q-2 2 -2 9q0 12 4 38q6 42 9 42q7 0 54.5 3.5t49.5 5.5zM377 384h-117l-22 -98v-6.5v-3.5q2 -3 39 -3h21q57 1 59 5z" />
<glyph unicode="$" horiz-adv-x="567" d="M380 692l7 48q13 1 26 1q66 0 107 -18q1 0 1 -8q0 -13 -2 -42q-3 -49 -7 -107t-4 -70q0 -7 -39 -10q-33 -3 -67 -3l-11 1q-39 0 -39 2q-3 40 -23.5 60t-46.5 20q-19 0 -37 -11.5t-18 -37.5q0 -16 18 -30t63.5 -36.5t67.5 -35.5q40 -23 64.5 -41t50 -45.5t37.5 -62.5 t12 -79q0 -79 -56.5 -135.5t-130.5 -61.5v-98q0 -1 -9 -1h-24q-15 0 -29 0.5t-25 0.5l-10 1q-4 0 -9 108q-58 17 -80 44q-1 -9 -2 -25t-2 -26l-1 -11l-131 9q-2 22 -2 254q77 17 126 17q17 0 31 -2q13 -48 39 -76t52 -28q23 0 39 12t16 34q0 16 -6.5 29.5t-21 24.5t-26 18 t-34.5 19l-36 17q-42 22 -66.5 38.5t-53 45t-42 67.5t-13.5 90q0 73 54 124t145 55q-2 63 -2 82v7q1 4 45 9q24 3 36 3q9 0 9 -2t0.5 -23t1.5 -48.5t1 -37.5q40 -12 57 -29z" />
<glyph unicode="%" horiz-adv-x="833" d="M191 665q71 0 114.5 -37t43.5 -102q0 -60 -40 -102t-117 -42t-122 35.5t-45 108.5q0 72 46 105.5t120 33.5zM192 562q-42 0 -42 -38q0 -34 42 -34q38 0 38 34q0 38 -38 38zM614 287q79 0 127 -41.5t48 -116.5q0 -68 -44.5 -115t-129.5 -47t-134.5 40t-49.5 122t50.5 120 t132.5 38zM616 171q-51 0 -51 -48q0 -21 16 -32t37 -11q43 0 43 43q0 48 -45 48zM582 720q7 0 51.5 -38t42.5 -46q-3 -14 -242 -348q-233 -327 -247 -327h-1q-7 5 -32 28t-46.5 45t-20.5 23l123 167l245 331q123 165 127 165z" />
<glyph unicode="&#x26;" horiz-adv-x="858" d="M289 727q82 0 137.5 -49t55.5 -133q0 -90 -82 -150l-17 -11l76 -91q69 73 83 95q-9 4 -22.5 16t-21.5 22l-9 10l90 126q7 0 127 -72q124 -74 125 -79q0 -2 -19 -38l-40 -71l-19 -35q-60 42 -61 42q-17 -24 -46 -59l-48 -59l-20 -23q16 -30 54 -30q12 0 23.5 7.5t19 18 t13.5 21t9 17.5l3 8q1 0 31 -10l59 -22q29 -11 27 -11q-1 0 -4 -21t-13.5 -51t-28 -59.5t-55 -50.5t-88.5 -21q-17 0 -34 2.5t-31.5 7.5t-27 10.5t-23.5 13.5l-21 13q-9 6 -17 14l-14 12l-9 9l-5 6q-13 -13 -33.5 -28t-70.5 -33t-106 -18q-94 0 -151.5 59t-57.5 137 q0 40 14 79t33.5 67t39 50t33.5 33l14 11q-64 76 -64 137q0 28 12 58.5t34.5 58.5t60.5 46t85 18zM257 275q0 -1 -5 -4.5t-12 -10.5t-14 -15.5t-12 -21t-5 -25.5q0 -18 15.5 -31t31.5 -13q41 0 74 33zM291 496h1q2 0 10 4q9 6 18.5 18.5t9.5 26.5q0 41 -37 41 q-15 0 -24.5 -11.5t-9.5 -27.5q0 -13 10.5 -28.5t21.5 -22.5z" />
<glyph unicode="'" horiz-adv-x="283" d="M54 722q1 1 85 4q36 1 57 1q27 0 28 -2q0 -8 -24.5 -125t-29.5 -117q-2 0 -28 -1l-50 -2h-23l-1 18q-2 18 -4 44l-4 58q-3 31 -4.5 57.5t-1.5 44.5q-1 7 -1 11q0 8 1 9z" />
<glyph unicode="(" horiz-adv-x="400" d="M346 748q6 -8 11.5 -55.5t5.5 -59.5q0 -1 -20.5 -5.5t-49.5 -19.5t-58 -42t-49.5 -84t-20.5 -135q0 -44 7.5 -82.5t19.5 -66t28 -50t33.5 -37.5t35.5 -26t33.5 -17t28 -9.5t19.5 -4.5l7 -2q-1 -1 -11 -30l-18 -58q-10 -28 -12 -28q-3 0 -18.5 3.5t-45.5 14.5t-62 28.5 t-67 50t-62 74t-44.5 105t-17.5 138.5t18 137.5t46.5 102.5t63.5 71t70 47t64 25.5t47 12.5q13 2 17 2h1z" />
<glyph unicode=")" horiz-adv-x="400" d="M52 742q26 0 82 -20q161 -57 218 -208q27 -73 27 -164q0 -75 -17.5 -138.5t-44.5 -105t-62 -73.5t-67 -49.5t-62 -28.5t-45.5 -14t-18.5 -3q-2 0 -12 28l-18 58q-10 29 -11 30l7 1q7 1 19 4.5t28 9t33.5 16.5t35 25t33 36.5t28 49.5t19.5 65.5t7 82.5q0 57 -11 102.5 t-28 74t-38 49t-42 30.5t-38 15.5t-28 8t-11 3.5q0 3 5 32t9 56t3 27z" />
<glyph unicode="*" horiz-adv-x="416" d="M181 762q76 0 77 -3q1 -2 2 -26l4 -47q1 -22 3 -22q1 0 22 8.5t41.5 16t22.5 5.5t13 -26l23 -46q11 -23 10 -23t-24 -7l-46 -14q-23 -8 -22 -9t17 -13l34 -26l16 -12q0 -2 -18 -37.5t-21 -37.5h-1q-12 0 -82 47q-1 0 -1 -2.5t-0.5 -7.5t-0.5 -11v-13v-12v-10v-6 q0 -6 -42 -15q-32 -7 -42 -7q-4 0 -5 1q-3 1 -3 95q0 1 -20 -10l-41 -22q-21 -12 -22 -12q-2 0 -25.5 38t-23.5 42q0 3 37 33t37 32t-36.5 31.5t-36.5 32.5q0 4 26 33q28 31 30 31q5 0 39 -20q35 -21 36 -21q2 0 8 18l10 36z" />
<glyph unicode="+" horiz-adv-x="622" d="M31 413l224 3v232l110 -11v-212h220v-27q0 -63 -4 -67q-3 -3 -102.5 -12.5t-101.5 -10.5q-3 -2 -6 -116t-4 -115q-3 -3 -53 -5h-19q-31 0 -33 5q-1 5 -5 64l-8 115q-4 57 -5 58h-5q-18 0 -95 -2q-53 -2 -78 -2q-22 0 -23 1q-2 2 -5.5 27.5t-5.5 50t-1 24.5z" />
<glyph unicode="," horiz-adv-x="308" d="M155 198q39 0 68.5 -29.5t35.5 -69.5q9 -58 9 -107q0 -70 -19 -120q-33 -84 -121 -101q-4 9 -10.5 29t-10.5 36l-4 16q56 5 76 57q7 19 7 35q0 20 -11 35q-10 13 -26 13q-49 0 -69 26q-23 28 -23 79q0 45 28 73q29 28 70 28z" />
<glyph unicode="-" horiz-adv-x="424" d="M44 313q5 3 167 18q121 11 152 11q11 0 11 -1q1 -2 1 -9q0 -18 -4 -70q-5 -72 -7 -72q-1 0 -150.5 -10.5t-153.5 -10.5q-5 0 -12 71q-5 50 -5 66q0 6 1 7z" />
<glyph unicode="." horiz-adv-x="308" d="M155 198q41 0 72.5 -30t31.5 -69q0 -45 -23 -76t-70 -31q-51 0 -79 27q-30 29 -30 78q0 45 28 73q29 28 70 28z" />
<glyph unicode="/" horiz-adv-x="500" d="M337 752q114 -46 114 -51q0 -9 -148 -376q-147 -364 -158 -364q-6 0 -59 34q-48 31 -48 34q0 2 148.5 361.5t150.5 361.5z" />
<glyph unicode="0" horiz-adv-x="596" d="M298 709q55 0 101 -18.5t86 -59t62.5 -116.5t22.5 -180q0 -361 -267 -361q-48 0 -86.5 9.5t-73.5 34.5t-58.5 65.5t-37.5 105t-14 149.5q0 105 21.5 180t60 115.5t83.5 58t100 17.5zM297 511q-37 0 -55.5 -50.5t-18.5 -126.5q0 -170 71 -170q74 0 74 159q0 188 -71 188z " />
<glyph unicode="1" horiz-adv-x="500" d="M247 729l136 -47l-6 -518q1 -2 20.5 -2t41.5 -1t26 -5q5 -7 4 -48v-32q-2 -70 -5 -74q-1 -2 -383 -2q-4 0 -4 110v48l104 3l10 312q-80 -37 -84 -37q-5 0 -23 26q-19 27 -36 55t-18 31q0 2 54 48l108 90q55 44 55 43z" />
<glyph unicode="2" horiz-adv-x="531" d="M253 712q108 0 176 -48t68 -145q0 -60 -34.5 -122t-159.5 -223l194 3q5 -6 7 -50v-33q0 -26 -2 -52q-2 -40 -6 -40q-3 1 -33 1q-54 0 -191 -3q-117 -1 -172 -1q-47 0 -49 1q-5 3 -14 63q-7 45 -7 67q0 7 1 12l61 75l50 62l40 49l32 40l24 30q12 15 18 24l10 18q6 10 8 17 t3 14t1 15q0 12 -12.5 23.5t-25.5 11.5q-28 0 -51.5 -12t-32.5 -24l-10 -12q-1 -1 -3 -1q-8 0 -30 26q-26 32 -49 68.5t-23 44.5q0 5 8 16t26 26t42 28t60 22t76 9z" />
<glyph unicode="3" horiz-adv-x="531" d="M271 712q104 0 169.5 -56.5t65.5 -159.5q0 -76 -65 -124l-9 -6l9 -6q6 -4 20.5 -17.5t25.5 -29.5t20 -42t9 -55q0 -103 -70.5 -165.5t-167.5 -62.5q-52 0 -97 16t-72 38.5t-46 45t-27 38.5l-7 16q105 120 113 120q2 0 17.5 -21.5t44 -43t61.5 -21.5q20 0 30 13.5t10 26.5 q0 33 -27.5 49t-70.5 16q-4 4 -4 39t2 68l2 32q20 0 29 0.5t25.5 3.5t24.5 8.5t14.5 17.5t6.5 30q0 23 -14 36t-35 13q-49 0 -95 -59l-3 -4q-4 4 -11 10t-24 22t-30 30t-23 28t-9 21q2 11 16 31.5t38.5 44.5t66 41.5t87.5 17.5z" />
<glyph unicode="4" horiz-adv-x="557" d="M42 713l154 5l-1 -245h67l8 163q162 -4 164 -5l3 -167h34q44 0 44 -2v-154q0 -3 -86 -3q-2 0 -2 -164q0 -1 16 -1.5t34 -2t22 -4.5q2 -1 3.5 -9t2 -20t0.5 -25.5t-0.5 -27.5t-0.5 -25v-18l-1 -8q0 -2 -339 -2q-2 4 -2 26v12q1 32 2 70l2 37l89 3l5 157q-223 13 -224 13 l1 99q1 99 3 198t2 100z" />
<glyph unicode="5" horiz-adv-x="500" d="M496 216q0 -103 -70.5 -165.5t-167.5 -62.5q-52 0 -97 16t-72 38.5t-46 45t-27 38.5l-7 16q105 120 113 120q2 0 17.5 -21.5t44 -43t61.5 -21.5q20 0 30 12.5t10 25.5q0 104 -204 104l-26 30l26 352h19l47 2q35 2 67 3t73 2t72 1q10 1 20 1q19 0 35 -1q25 -1 32 -3 q-17 -154 -22 -156l-173 -8l-7 -77q5 -1 14 -2t35.5 -8t50 -17t53 -30t50 -44.5t35 -62.5t14.5 -84z" />
<glyph unicode="6" horiz-adv-x="531" d="M273 720q-2 2 36.5 -17t78.5 -44.5t46 -41.5q0 -1 -13 -10t-32.5 -24.5t-40.5 -34t-39.5 -42t-26.5 -44.5q41 -9 78.5 -27t71.5 -47t54.5 -74t20.5 -99q0 -109 -64 -167.5t-159 -58.5q-47 0 -90.5 17.5t-81 51.5t-60.5 93t-23 134q0 184 168 363q42 46 76 72zM229 308 q-12 -27 -12 -59q0 -29 19 -54q21 -27 57 -27q16 0 30 13t14 36q0 43 -36 67t-72 24z" />
<glyph unicode="7" horiz-adv-x="594" d="M37 689q3 3 18.5 5.5t38 3.5t52.5 2t62.5 1t66.5 -1h66q32 -1 60.5 -1.5t49.5 -1t34 -1.5h13l72 -97q-268 -617 -270 -617t-43.5 14.5t-92.5 36.5t-68 36l227 449l-114 1l5 -89l-151 -5q-2 2 -13 64.5t-17 121.5q-2 22 -2 39q0 27 6 39z" />
<glyph unicode="8" horiz-adv-x="596" d="M282 709q52 0 104.5 -20.5t91.5 -67.5t39 -109q0 -95 -59 -143q84 -55 84 -174q0 -97 -74 -153t-174 -56q-48 0 -92.5 12.5t-83 37t-62 66.5t-23.5 96q0 116 77 170q-58 47 -58 146q0 63 37.5 109t88.5 66t104 20zM291 281q-33 0 -49 -18t-16 -46q0 -64 62 -64 q66 0 66 59q0 31 -15.5 50t-47.5 19zM285 565q-28 0 -42 -13.5t-14 -35.5q0 -48 54 -48q55 0 55 45q0 52 -53 52z" />
<glyph unicode="9" horiz-adv-x="532" d="M283 -23l-4 1q-4 2 -11 5l-18 7l-22 10l-24 12l-26 14.5t-24 15.5t-20.5 16.5t-15.5 16.5l27 27q27 27 60.5 68.5t45.5 74.5q-41 9 -78 27t-71 46.5t-54.5 73t-20.5 98.5q0 109 65.5 168.5t160.5 59.5q48 0 91.5 -13t82.5 -42t62.5 -84t23.5 -130q0 -69 -23.5 -143 t-57.5 -130.5t-68 -103t-58 -70.5zM306 404q10 23 12 53v5q0 27 -18 51q-20 26 -56 26q-16 0 -30 -13t-14 -36q0 -43 34.5 -64.5t71.5 -21.5z" />
<glyph unicode=":" horiz-adv-x="308" d="M155 198q41 0 72.5 -30t31.5 -69q0 -45 -23 -76t-70 -31q-51 0 -79 27q-30 29 -30 78q0 45 28 73q29 28 70 28zM155 558q41 0 72.5 -30t31.5 -69q0 -45 -23 -76t-70 -31q-51 0 -79 27q-30 29 -30 78q0 45 28 73q29 28 70 28z" />
<glyph unicode=";" horiz-adv-x="308" d="M155 558q41 0 72.5 -30t31.5 -69q0 -45 -23 -76t-70 -31q-51 0 -79 27q-30 29 -30 78q0 45 28 73q29 28 70 28zM155 198q39 0 68.5 -29.5t35.5 -69.5q9 -58 9 -107q0 -70 -19 -120q-33 -84 -121 -101q-4 9 -10.5 29t-10.5 36l-4 16q56 5 76 57q7 19 7 35q0 20 -11 35 q-10 13 -26 13q-49 0 -69 26q-23 28 -23 79q0 45 28 73q29 28 70 28z" />
<glyph unicode="&#x3c;" horiz-adv-x="500" d="M424 534q5 -4 20.5 -45t13.5 -45q-2 -3 -126 -58l-123 -55q-1 -1 66 -33l135 -62q69 -32 71 -32t-6 -24l-17 -48q-10 -26 -11 -26q-6 0 -100 44l-197 93q-99 47 -103 47q-11 0 -11 94q0 5 192 80q182 70 195 70h1z" />
<glyph unicode="=" horiz-adv-x="500" d="M38 476h75q341 0 351 -17q3 -7 3 -18q0 -6 -1 -13q-2 -19 -6.5 -37t-5.5 -19h-6q-29 0 -198 4q-202 5 -207 6q-6 1 -6 63v19q0 13 1 12zM52 270q2 2 200 9q139 5 181 5q18 0 18 -1q0 -5 -4.5 -60.5t-5.5 -55.5q-31 0 -203.5 3.5t-175.5 6.5q-5 5 -10 46q-3 20 -3 31 q0 13 3 16z" />
<glyph unicode="&#x3e;" horiz-adv-x="500" d="M78 534h1q13 0 200 -70q197 -75 197 -80q0 -1 1 -12t1 -24l2 -26v-9q0 -8 -1 -14q-1 -9 -4 -9q-4 0 -98 -54l-187 -108q-90 -52 -95 -52q-1 0 -11 26l-17 48q-8 24 -6 24t71 36l135 74q67 36 66 37l-143 60q-144 60 -146 63q-2 4 13.5 45t20.5 45z" />
<glyph unicode="?" horiz-adv-x="531" d="M207 271q-4 4 -4 41.5t2 72.5l2 35q20 0 29 0.5t25.5 3.5t24.5 8.5t14.5 17.5t6.5 30q0 23 -14 36.5t-35 13.5q-24 0 -48 -16t-36 -32l-11 -16q-4 4 -11 10t-24 22t-30 30t-23 28q-9 13 -9 20q0 9 16 33q13 21 37 46t65 43.5t87 18.5q103 0 169 -61.5t66 -165.5 q0 -68 -24.5 -115.5t-68.5 -70t-95 -30.5q-31 -5 -66 -5q-22 0 -45 2zM268 198q41 0 72.5 -30t31.5 -69q0 -45 -23 -76t-70 -31q-51 0 -79 27q-30 29 -30 78q0 45 28 73q29 28 70 28z" />
<glyph unicode="@" horiz-adv-x="1005" d="M456 432q66 0 102 -22l13 46q42 2 84 2q14 1 28 1l56 -1q0 -2 1.5 -31.5t2.5 -56.5l1 -28q-2 0 -28.5 -7t-27.5 -8l7 -195h3q15 0 35 8q22 9 46 30t40.5 63t16.5 97q0 29 -9 62t-32 70t-57.5 66t-91.5 48.5t-127 19.5q-94 0 -164.5 -32t-108.5 -85t-56 -109.5t-18 -115.5 q0 -39 10.5 -77t25.5 -65.5t35.5 -55t35.5 -42.5l31 -29q16 -15 17 -16q0 -8 -29.5 -33.5t-58.5 -47.5l-29 -21q-8 6 -21 18t-46 51t-58.5 81t-46.5 105.5t-21 126.5q0 71 16 137.5t54 129.5t94 109.5t143.5 75t195.5 28.5q205 0 331 -101t126 -292q0 -354 -362 -354 q-21 0 -42 1l-5 68q-4 -6 -12 -14.5t-37.5 -23t-65.5 -14.5q-29 0 -60 13t-60 39t-47.5 72t-18.5 105q0 95 60 149.5t129 54.5zM475 302q-64 0 -64 -88q0 -41 18.5 -64t42.5 -23q28 0 44.5 22t16.5 63q0 39 -16.5 64.5t-41.5 25.5z" />
<glyph unicode="A" horiz-adv-x="701" d="M330 2l-290 -14q-6 13 -9.5 49t-4.5 65v30l66 16q20 110 51 248t52 221l21 83q19 5 52 5q8 0 17 -1q45 -1 89 -6l45 -4l195 -551h58v-147l-244 -9q-33 0 -36 2q-7 5 -13 73q-3 37 -3 55q0 14 2 15l51 3l-27 81l-135 2l-13 -66l68 -9q1 -9 2 -22t3.5 -48.5t2.5 -48.5v-22z M373 346l-50 130l-39 -135z" />
<glyph unicode="B" horiz-adv-x="648" d="M35 -4q-3 27 -3 65v30q2 58 6 65q4 5 30 5q17 0 42 -2l14 306q1 28 1 46q0 26 -2 27q-4 2 -25 2q-8 1 -15 1q-14 0 -27 -1l-20 -1q-8 21 -8 64q0 37 6 90q179 10 288 10q20 0 41 -2t54.5 -7.5t62 -19t55 -33t42 -52t15.5 -74.5q0 -34 -11.5 -63t-28 -47t-33.5 -30.5 t-28.5 -18.5t-11.5 -7l5 -2q5 -2 13 -6l19 -9q10 -6 22 -14t24 -18t22.5 -23.5t18.5 -28.5t13 -34.5t5 -40.5q0 -47 -14 -81.5t-38.5 -55.5t-63 -33.5t-80.5 -17t-98 -4.5q-135 0 -292 15zM298 147q128 0 128 59q0 57 -100 57l-27 -1zM295 414q0 -1 5 -1q7 0 22 1 q28 3 56 19t28 49q0 36 -26 50q-23 12 -47 12h-9l-27 -4z" />
<glyph unicode="C" horiz-adv-x="639" d="M446 713l30 -3q29 -2 68.5 -9t58.5 -19q2 -8 2 -42v-24q-1 -56 -4 -120l-3 -63l-161 -20q-1 4 -3 11t-10 25t-19 31.5t-32 24.5t-46 11q-41 0 -68.5 -43t-27.5 -123t38 -119.5t83 -39.5q29 0 57.5 15t42.5 28.5t22 24.5q20 -21 52.5 -52t55.5 -51l23 -21l-8 -16 q-5 -10 -26.5 -35.5t-47.5 -45t-72 -35.5t-99 -16q-60 0 -117 23.5t-104 67t-76 114.5t-29 158q0 91 25.5 160t68 108.5t92.5 58.5t105 19q34 0 63.5 -10.5t41.5 -21.5l13 -10z" />
<glyph unicode="D" horiz-adv-x="675" d="M316 -23q-45 0 -113 5t-114 10q-38 3 -46 3h-2l-1 17q-1 16 -3 39.5t-3.5 49t-2 42t1.5 19.5q3 2 22.5 4.5t38.5 3.5l18 2l11 345q-77 -7 -79 -7q-1 0 -8 41t-12 83q-4 28 -4 39q0 5 1 6q5 3 32.5 9.5t83.5 11.5q41 5 85 5q16 0 32 -1q121 -2 165 -10q176 -32 222 -203 q17 -63 17 -147q0 -79 -12.5 -139.5t-37.5 -100t-55 -65.5t-71 -39t-79 -18t-87 -5zM298 161q13 -2 26 -2q52 0 87 31q43 38 43 146q0 55 -10.5 93t-26.5 54t-36 25q-16 8 -30 8h-8q-13 -2 -24 -2h-8q-4 -1 -6 -1q-10 -178 -10 -272q0 -53 3 -80z" />
<glyph unicode="E" horiz-adv-x="647" d="M59 -3q-1 -1 -1 13q-1 8 -1 17t1 19v44q1 22 2.5 38t3.5 18q5 5 47 5h15l6 387q0 16 -1 16l-67 -6l-13 158q1 3 134 4.5t265 1.5l133 -1q4 -6 7 -19t4 -30t2 -38v-20v-20l-2 -39.5t-2 -34t-2 -24.5v-9q0 -2 -68 -3q-35 -1 -53.5 -0.5t-22.5 0.5q-3 0 -6 18t-4.5 37 t-1.5 20q-1 2 -56 3h-32q-25 0 -26 -1t-1 -27v-31q1 -56 3 -57q1 0 27 -1t51 -2.5t25 -2.5t1 -15.5t2 -34t1.5 -40.5t1 -33.5t-0.5 -14.5q-1 0 -29 -1.5t-55 -3.5t-28 -3q-2 -3 -2 -131q4 -2 31 -1.5t58.5 3t31.5 3.5q0 2 14 53.5t14 52.5h2q6 0 39 -3q40 -4 81 -9t41 -6 q0 -5 -9.5 -128.5t-10.5 -124.5q-1 0 -274 3q-164 2 -230 2q-44 0 -45 -1z" />
<glyph unicode="F" horiz-adv-x="616" d="M44 -10l-1 37q-2 49 -2 73.5t2 25.5q6 3 86 10q-4 395 -7 399q-1 2 -22 4t-42 3l-20 1q1 132 14 157q516 -6 521 -9t11 -209l-111 -20q-26 -3 -28 0q-3 4 -5.5 21t-3.5 32l-2 15l-109 1q3 -125 5 -125q5 0 53 -5.5t48 -7.5q0 -11 -2 -77.5t-3 -66.5t-50.5 -1t-50.5 -1 q-1 -4 -0.5 -26.5t2.5 -50t3 -28.5t24 -2l46 -2q23 -1 23 -2t5 -36l10 -72l4 -35z" />
<glyph unicode="G" horiz-adv-x="773" d="M376 713q85 0 135 -41q2 9 3.5 24t3.5 25l1 10q3 0 80.5 -13t78.5 -15l-18 -244l-170 -14q-23 95 -110 95q-65 0 -104 -61q-40 -63 -40 -146q0 -70 42 -127q43 -58 113 -58q30 0 49.5 16t23.5 32l4 15l-84 -1q-8 9 -11 44q-2 26 -2 50v16l1 30q12 4 54 4q81 0 274 -15 q10 -47 19.5 -175.5t9.5 -163.5q0 -2 -40.5 -4.5t-80.5 -4.5l-40 -2l-10 68q-23 -31 -73 -59.5t-107 -28.5q-164 0 -256.5 97t-94.5 269v6q0 95 29 169q30 75 82 118t112 64t126 21z" />
<glyph unicode="H" horiz-adv-x="752" d="M41 7q-7 12 -7 59v6q1 53 5 57t72 10l-14 413q-17 -1 -29 -1q-30 0 -34 4q-1 5 -1 22v19q1 32 3 68l2 37l289 -5l7 -142l-70 -7l5 -110l193 -9l-2 123q-58 6 -59 6t-4 21t-5 55q-1 23 -1 42v19q55 13 125 13q2 0 5 -1q73 0 136 -8l63 -7q-3 -137 -5 -137l-74 -12l13 -395 l69 -8v-143q-20 0 -48.5 -0.5t-106.5 -1.5q-52 -1 -82 -1q-15 0 -24 1h-49l-3 146l70 7l-3 132l-203 6q-1 -42 -1 -72q0 -74 4 -74q1 0 9 0.5t17 0.5h19q9 0 15.5 -1t6.5 -3t3.5 -36t5.5 -66q1 -15 1 -23.5t-1 -8.5q-8 -3 -153 -4h-26q-121 0 -133 9z" />
<glyph unicode="I" horiz-adv-x="439" d="M294 547l13 -404q87 0 87 -7q0 -1 0.5 -16t1.5 -34l2 -38v-17.5v-14.5q-1 -13 -2 -14q-8 -3 -170 -4h-28q-135 0 -147 9q-7 12 -7 61v8q1 55 5 59q3 3 47 3h25l-14 414q-17 -1 -29 -1q-30 0 -34 4q-1 5 -1 22v19q1 32 3 68l2 37l329 5l7 -142z" />
<glyph unicode="J" horiz-adv-x="591" d="M178 688q49 12 142 16q77 4 137 4h26q69 -1 70 -3q11 -37 14 -168l-67 -11q7 -132 7 -274v-36q-1 -72 -23.5 -125t-59 -80t-75 -39.5t-79.5 -12.5q-50 0 -94.5 16t-72.5 38.5t-48.5 45t-29.5 38.5l-9 16l74 72q45 40 55 40h1q6 -1 19.5 -20t35 -36.5t46.5 -17.5 q31 0 47.5 19t16.5 51l-5 304q-52 -1 -80 -1t-32 1q-6 1 -11 59.5t-5 103.5z" />
<glyph unicode="K" horiz-adv-x="701" d="M44 -2q-1 3 -5 71q-2 39 -2 56q0 12 1 12l72 5l-2 413q-78 6 -79 8v8q0 14 1 57q2 64 3 66t134 8q86 3 118 3q18 0 19 -1q3 -4 3 -73.5t-2 -72.5l-42 -17v-103q145 128 145 134q0 3 -10.5 3.5t-21.5 1.5t-12 3q-1 3 -5 60.5t-4 63.5q0 2 73 3h59q44 0 88 -1q73 -1 73 -4 v-133q-2 -3 -26 -6t-25 -4q-3 -2 -71 -67q-70 -68 -70 -71q0 -9 74 -141q77 -137 81 -139q2 -1 17 -2.5t29 -2.5l14 -2q1 -1 5 -64q2 -39 2 -54q0 -9 -1 -9q-4 -3 -149 -7q-52 -2 -86 -2q-61 0 -65 5q-2 6 -5.5 39t-5.5 62.5t-1 29.5l17 -2q17 -1 29 -1.5t15 0.5q0 3 -45 94 t-49 94h-1q-6 0 -31 -25q-28 -27 -35 -35q-1 -6 -1 -18v-13q1 -23 2 -54l2 -32q0 -3 31 -7.5t31 -5.5t-2 -62t-2 -64q0 -2 -70.5 -3.5t-141.5 -1.5h-70z" />
<glyph unicode="L" horiz-adv-x="575" d="M37 706h15h72l166.5 -4t82.5 -3l1 -7v-16v-24l2 -26v-28v-24q0 -10 -0.5 -16.5t-1.5 -6.5l-82 -11q-4 -32 -8 -129t-6 -178q-1 -54 -1 -72v-9q101 0 103 4q1 2 17.5 64t16.5 65q0 1 4 1q12 0 61 -7q65 -9 68 -11q1 -1 2.5 -71t1.5 -129.5t-1 -69.5h-6q-231 -4 -359 -4 q-160 0 -160 6q0 3 -1 42.5t-2 67.5v16q0 14 1 20q1 1 34.5 2.5t34.5 2.5t2 79t3 178t5 141q-3 2 -16 2t-29 -1t-17 -1q-3 1 -6 77q-1 25 -1 42q0 35 4 38z" />
<glyph unicode="M" horiz-adv-x="799" d="M38 3q0 -1 -1.5 13.5t-3 35t-2.5 42.5q-1 14 -1 25v11q1 16 3 17q3 2 21 2t33.5 0.5t15.5 1.5q0 364 -3 385q0 3 -14 3t-27 -0.5t-20 2.5q-7 4 -9 82q-1 30 -1 49q0 31 2 33q4 4 118.5 4t118.5 -3q3 -2 55 -85t58 -95q4 8 63 92t63 87q3 2 65 3h40q41 0 82 -1 q60 -1 60 -2l1 -74q1 -74 1 -79q0 -10 -73 -10q-1 0 -1 -97t1 -196t3 -102t21 -4t37.5 -1.5t18.5 -3.5q0 -2 2.5 -39.5t4.5 -72t1 -34.5h-85q-85 0 -168 2t-83 8q0 137 2 137t19 1h32q16 1 16 2l2 279q-70 -105 -72 -105l-14 -2q-15 -1 -31.5 -2.5t-31 -2.5t-15.5 0t-19 29 l-36 56l-18 27l1 -65l4 -134q2 -68 2 -70q0 -3 35.5 -6.5t35.5 -4.5l2 -37q2 -37 3 -72q1 -20 1 -28v-6z" />
<glyph unicode="N" horiz-adv-x="717" d="M38 -5q1 1 1 6q0 13 -5 58q-4 52 -4 60q0 2 3 3t31 4q32 5 33 6t1 39.5t-1 113.5q-2 151 -6 236q-11 -1 -36.5 -1t-27.5 2t-8 88q-4 56 -4 76q0 10 1 11t16 1h38q23 0 50 -0.5t49 -0.5t38 -1h16q1 0 122.5 -174t123.5 -175q1 5 1 27v26q-1 47 -3 101l-2 54q-81 5 -82 5 t-5 35.5t-6 66.5q-1 12 -1 21q0 12 2 16q6 2 163 3h86q70 0 70 -1l1 -15q1 -15 1.5 -34.5t1.5 -39.5q1 -13 1 -24q0 -5 -1 -10q0 -13 -2 -13q-6 0 -37 -3.5t-31 -4.5l2 -59q1 -60 3 -140.5t3.5 -167t1.5 -138.5q1 -18 1 -30q0 -25 -1 -29q-1 0 -26 -2t-52 -3.5t-52 -1.5 q-5 -1 -9 -1q-16 0 -17 2l-212 356q0 -195 5 -201q2 -2 19.5 -4.5t34 -4.5t16.5 -5q0 -1 3.5 -33.5t5.5 -56.5q1 -9 1 -16q0 -10 -2 -15q-1 -1 -19.5 -2.5t-46.5 -2.5t-61 -2l-66 -4q-33 -1 -60 -1.5t-44 -0.5t-16 1z" />
<glyph unicode="O" horiz-adv-x="727" d="M373 717q145 0 235 -96.5t90 -265.5q0 -73 -19.5 -138.5t-57.5 -119t-101.5 -84.5t-145.5 -31q-159 0 -251.5 92t-92.5 283q0 96 26.5 167.5t75 112.5t108.5 60.5t133 19.5zM371 531q-134 0 -134 -184q0 -81 40.5 -123t94.5 -42q52 0 84.5 39.5t32.5 126.5q0 83 -29 133 t-89 50z" />
<glyph unicode="P" horiz-adv-x="593" d="M54 0q-1 0 -6 35.5t-8 67.5v19q0 16 3 21q5 3 22.5 4t32.5 1h15q-9 388 -12 389l-68 -2l-6 141q0 22 2 23q17 5 251 5q47 0 85 -5t76.5 -19t64.5 -38t42 -66q15 -39 15 -90v-6q-2 -226 -279 -226v-32v-28q0 -12 0.5 -21t0.5 -15v-5q0 -1 47 -9t50 -8q1 0 2.5 -33 t1.5 -67.5t-2 -37.5t-63 -3q-81 0 -267 5zM285 410q0 -2 8 -2q6 0 19 2q26 2 52.5 19t26.5 51q0 56 -86 56l-24 -2z" />
<glyph unicode="Q" horiz-adv-x="724" d="M354 716q151 0 245.5 -93t94.5 -278q0 -310 -220 -364q0 -1 1 -6t1.5 -7l1.5 -6l3 -6q1 -3 3 -6.5t4.5 -5.5t6 -4.5t8 -4t9.5 -2.5q8 -2 17 -2q39 0 92 34l15 -34q10 -21 24 -62t12 -54q-16 -30 -78 -49q-37 -11 -75 -11q-25 0 -51 5q-55 11 -96.5 37t-62.5 59.5 t-31.5 64t-12.5 59.5q-112 29 -173.5 130t-61.5 242q0 161 91 262.5t233 101.5zM370 530q-70 0 -107 -55t-37 -132q0 -79 36 -135q35 -55 105 -55h2q127 1 127 179q0 198 -126 198z" />
<glyph unicode="R" horiz-adv-x="698" d="M45 3q0 -1 -2 12.5t-4.5 32.5t-4.5 39v22v11q1 14 6 14q17 0 40.5 3t23.5 7v401q-18 -1 -32 -1q-33 0 -34 4q-1 2 -1 21.5t1 56.5q2 73 5 76q11 1 34 1h25q42 -1 116 -2.5t94 -1.5q29 0 47.5 -0.5t52 -4t56 -10.5t50 -20.5t44.5 -32.5t28.5 -48.5t11.5 -67.5 q0 -39 -10 -73t-24 -54.5t-28.5 -35t-24.5 -20.5l-10 -6l97 -198q30 1 44.5 1t14.5 -1l1 -20q1 -21 2.5 -44t1.5 -44q1 -7 1 -12q0 -10 -1 -11q-2 -4 -91 -4q-26 0 -61 1q-150 1 -151 7q-2 9 -2 66.5t4 57.5q46 0 46 6q0 4 -33.5 77t-35.5 73t-38 -4t-38 -4t-2 -35 q-1 -12 -1 -24q0 -24 1 -48q1 -35 5 -35q43 0 43 -4v-127zM270 544v-20q0 -13 -0.5 -40t-0.5 -44.5t0 -16.5l22 1q22 0 44.5 3.5t42 22t19.5 50.5q0 27 -31 38q-25 9 -50 9q-7 0 -14 -1z" />
<glyph unicode="S" horiz-adv-x="567" d="M360 692l7 48q17 1 32 1q80 0 121 -18q1 0 1 -8q0 -13 -2 -42q-3 -49 -7 -107t-4 -70q0 -7 -39 -10q-33 -3 -67 -3l-11 1q-39 0 -39 2q-3 40 -23.5 60t-46.5 20q-19 0 -37 -11.5t-18 -37.5q0 -16 18 -30t63.5 -36.5t67.5 -35.5q40 -23 64.5 -41t50 -45.5t37.5 -62.5 t12 -79q0 -83 -60.5 -140.5t-137.5 -57.5q-106 0 -155 56q-1 -9 -2 -25t-2 -26l-1 -11l-151 9q-2 22 -2 254q77 17 126 17q17 0 31 -2q13 -48 39 -76t52 -28q23 0 39 12t16 34q0 16 -6.5 29.5t-21 24.5t-26 18t-34.5 19l-36 17q-42 22 -66.5 38.5t-53 45t-42 67.5t-13.5 90 q0 77 59 128.5t157 51.5q73 0 111 -40z" />
<glyph unicode="T" horiz-adv-x="698" d="M26 695q5 5 161 12.5t311 12.5q106 3 140 3q15 0 15 -1q1 -3 3 -150q1 -97 1 -131v-19q-1 -3 -36 -3q-13 0 -31 1q-65 1 -67 4q-3 4 -13 124q-69 -1 -74 -2q-1 -2 -0.5 -12.5t0.5 -29.5q1 -37 4 -98l4 -118l5 -100l2 -42q0 -1 26.5 -0.5t50 1.5t29.5 -1q3 -3 6 -70 q1 -33 1 -51t-1 -22q-3 -7 -214 -7q-42 -1 -76 -1q-135 0 -135 2v12v58q2 68 3 69l31 2q31 3 61 7t30 8l-8 393l-83 -1q-5 -123 -5 -127q0 -1 -15 -2h-16h-19l-42 2t-37.5 1.5t-17.5 0.5q-3 0 -4 66v22q0 55 2 112q3 69 8 75z" />
<glyph unicode="U" horiz-adv-x="735" d="M19 692h5q14 0 73 2l159 6q60 2 75 2h5q1 -4 4 -74q2 -36 2 -54.5t-2 -20.5l-54 -8q3 -260 3 -281q0 -34 21 -57t64 -23q42 0 63 20.5t21 55.5l-1 290h-59l-2 149q17 6 92 7h73.5h68.5l66 -2q6 -138 6 -140l-58 -17q1 -249 1 -293q0 -126 -70 -196.5t-202 -70.5 q-129 0 -201 73.5t-72 204.5l-2 279l-73 11z" />
<glyph unicode="V" horiz-adv-x="737" d="M32 701q306 -2 310 -3q2 0 5.5 -39.5t6.5 -78.5l2 -39q-48 -7 -54 -7q-3 0 16 -57t40 -114l20 -57l14 39l26 75l30 85q11 34 10 34q-2 0 -26 -1t-25 -1q-2 0 -9 80q-4 61 -4 77v5q2 2 100 2q25 0 56 -1q154 0 155 -2q1 -1 1 -37v-45q-1 -80 -2 -82q-1 -3 -67 -3 q-2 0 -45 -131l-88 -265q-45 -133 -48 -135q-6 -3 -85 -3t-83 3q-2 1 -51 135l-97 267l-47 134q-53 8 -61 8q-4 0 -4 46v32q2 79 4 79z" />
<glyph unicode="W" horiz-adv-x="976" d="M38 689q327 5 330 5q1 0 2 -37v-35.5v-33.5q-1 -11 -1 -19q0 -17 1 -22q0 -1 -5.5 -2t-14.5 -1.5t-19 -1.5h-19q-10 -1 -16 -1h-7q-1 0 12.5 -53.5t29 -107t16.5 -52.5t23 56l44 108l22 55q97 0 105 -4q1 0 31 -57l60 -114q29 -56 29 -54q0 1 11 57l20 111q11 55 10 55 q-97 0 -103 3q-2 1 -3 73v54.5v19.5q2 3 356 3q3 0 3 -97v-54q-64 -5 -65 -5l-130 -540q-138 -2 -142 -2q-2 0 -64.5 132.5t-64.5 132.5t-33 -67l-60 -132l-30 -67q-117 0 -125 3q-5 2 -73.5 272t-70.5 272q-3 5 -32 9t-39 4q-2 0 -2 8.5t2 24.5q3 34 7.5 68.5t4.5 32.5z " />
<glyph unicode="X" horiz-adv-x="753" d="M51 711q0 1 15 1q16 0 43 -0.5t59 -1t65 -1.5t60.5 -1.5t46 -1t19.5 -0.5q6 0 6 -69q0 -26 -1 -61l-53 -3l70 -98q5 6 13 17l22 32l26 36q11 14 10 14q-39 0 -45 2q-2 1 -2 21q0 30 5 104q282 0 285 -2q2 -1 3 -64q1 -27 1 -43q0 -21 -1 -23t-14.5 -2t-26.5 1l-13 1 l-148 -210l166 -219q51 -4 55 -9t6 -124l-303 -10l-5 126l50 8q-74 100 -75 100t-41 -52t-40 -53t10.5 -1.5t22.5 -1.5t14 -1q5 -1 5 -119q0 -3 -308 -3q-1 1 -0.5 14t1.5 34l2 40q1 20 2 35l1 15l58 5l156 199l-165 227q-42 -1 -50 -1q-3 0 -4 35t-1 71q0 12 -0.5 20.5 t-0.5 10.5t-0.5 3.5t-0.5 2.5z" />
<glyph unicode="Y" horiz-adv-x="702" d="M37 701l294 -5l11 -137q-1 -2 -48 -2l17 -19l35 -40l17 -20q4 5 11.5 13.5t21.5 26.5l24 30q10 13 9 14t-40 1q-2 1 -2 39v30q1 69 2 70h11q28 0 124 -2q134 -2 139 -4t9 -68q4 -46 4 -61q0 -6 -1 -7q-3 -3 -61 -3l-169 -226q3 -177 3 -187q0 -4 14 -5t29.5 -1t17.5 -2 q3 -4 3 -134q0 -3 -155 -6q-121 -3 -149 -3h-8q-2 1 -3 69q0 34 -0.5 51t0.5 18q1 0 18 2t33.5 4.5t16.5 3.5v193q0 2 -37 53l-76 100q-37 48 -39 48q-9 0 -20 1l-38 6q-19 2 -19 3v17q1 16 1 38.5t0.5 45.5t0.5 39t-1 16z" />
<glyph unicode="Z" horiz-adv-x="642" d="M71 701h188q333 0 333 -3q0 -1 5 -37.5t9 -71.5q3 -23 3 -32q0 -4 -1 -4q-2 -1 -80 -97l-156 -194q-77 -96 -76 -96q9 0 86 4t78 6q1 1 5 28.5t8.5 54.5t5.5 27q19 0 71 -3t56 -9q3 -3 3 -41q0 -64 -8 -228h-538q-1 0 -7 39l-12 80q-6 40 -5 41q0 1 85 100l166 197 q82 98 80 98q-130 0 -138 -5l-20 -88q-127 8 -137 13q-6 5 -6 112t2 109z" />
<glyph unicode="[" horiz-adv-x="395" d="M352 724q1 0 1.5 -31t0.5 -58.5t-1 -33.5q-2 -2 -69 -8.5t-75 -6.5q-3 0 -3 -173t3 -519v-3l141 -4v-45q0 -81 -3 -83q-1 -1 -11 -1h-12q-22 1 -54.5 2t-70.5 2t-70 2.5t-54 1.5l-22 1l-6 944z" />
<glyph unicode="\" horiz-adv-x="500" d="M153 752q2 -2 150.5 -361.5t148.5 -361.5q0 -3 -48 -34q-53 -34 -59 -34q-11 0 -158 364q-148 367 -148 376q0 5 114 51z" />
<glyph unicode="]" horiz-adv-x="395" d="M52 714l305 -3q-25 -944 -26 -944q-270 0 -274 2q-1 1 -2 14t-1 32v37v32v13q9 0 23.5 -1t45.5 -2.5t51 -1.5l21 -1v3q3 346 3 519t-3 173q-139 0 -144 5q-1 6 -1 33.5t0.5 58.5t1.5 31z" />
<glyph unicode="^" horiz-adv-x="426" d="M412 684q-69 -103 -85 -111l-116 78l-115 -85q-6 1 -16.5 13t-21.5 29l-21 34l-17 28l-7 11q-1 0 17 15l45 34l55 42l47 34q21 16 23 16q8 0 212 -138z" />
<glyph unicode="_" horiz-adv-x="542" d="M48 2q460 -4 460 -7t-3.5 -44.5t-4.5 -43.5t-226 -5q-126 -1 -183 -1q-46 0 -48 1t-2 17q0 12 1 33q3 48 6 50z" />
<glyph unicode="`" horiz-adv-x="426" d="M388 703q-38 -124 -52 -124q-6 0 -142 39q-150 43 -150 45q0 5 10 34q13 34 28 69q15 36 19 36q5 0 74 -24l143 -50z" />
<glyph unicode="a" d="M246 504q80 0 146 -48l2 -2v50q53 2 106 3h35l71 -1q0 -2 1.5 -35.5t2.5 -65.5l2 -32q-2 0 -37.5 -8t-36.5 -9l2 -211q83 0 84 -6q2 -4 2 -48v-25q-1 -67 -4 -67q-17 0 -122 2.5t-105 4.5l-10 51l-5 -7q-3 -5 -15.5 -16t-27.5 -20t-40 -16t-54 -7q-38 0 -74 13.5 t-70.5 42t-55.5 83.5t-21 128q0 68 20 118t54 76.5t71.5 39t78.5 12.5zM282 350q-38 0 -60.5 -25t-22.5 -70q0 -42 24 -68.5t55 -26.5q34 0 56 25.5t22 67.5q0 40 -21.5 68.5t-52.5 28.5z" />
<glyph unicode="b" d="M258 2q-1 -1 -18 -1t-40 1l-46 2q-22 1 -38 2t-15 1l2 554q-1 1 -40 6.5t-42 5.5l1 32q2 32 3.5 65.5t1.5 35.5q0 5 262 18v-250q4 4 12 10t38.5 16.5t68.5 10.5q33 0 62 -6.5t59 -24t51 -45.5t34 -74t13 -106q0 -73 -23.5 -128t-61.5 -84t-76.5 -43t-76.5 -14 q-27 0 -49.5 4.5t-34.5 10.5t-21.5 13.5t-12 11t-3.5 6.5zM368 360q-29 0 -47.5 -32t-18.5 -78q0 -47 19.5 -73.5t52.5 -26.5q30 0 47 26t17 75q0 109 -70 109z" />
<glyph unicode="c" horiz-adv-x="555" d="M382 538h10q10 -1 26 -3t33.5 -4.5t36 -8.5t30.5 -14q2 -7 2 -34v-20q-1 -45 -4 -96l-2 -52l-161 -22q0 3 -1 8t-5.5 17.5t-11 22t-19 17t-28.5 6.5q-29 -1 -50 -25t-21 -71q0 -44 25.5 -67.5t55.5 -23.5q8 0 16.5 1.5t14.5 3.5t12 5.5t10 6.5t8.5 7t6.5 6t5 6l3 4 q18 -4 53.5 -31.5t62.5 -52.5l27 -26q-2 -5 -7 -12t-23 -26.5t-40 -34t-60 -26.5t-82 -12q-122 0 -200.5 72t-78.5 200q0 67 21.5 118.5t57 81t76 44.5t82.5 15q34 0 61.5 -8t37.5 -16l11 -7z" />
<glyph unicode="d" d="M392 -3l-12 36q-1 -2 -3 -5t-12 -10.5t-22.5 -13t-36 -10.5t-52.5 -5q-38 0 -76 13.5t-74.5 42t-59.5 83t-23 127.5q0 60 13 106t34 74t51 45.5t59 24t62 6.5q81 -1 119 -37v104q-73 11 -77 14q-2 5 -2 18v16q2 28 4 60l2 31q-1 0 14 0h37q23 0 51 0.5t56 0.5h50h37 l14 -1l1 -564l80 -5l1 -148q1 0 -23.5 -1t-58 -1.5t-67.5 -1.5q-24 -1 -42 -1q-10 0 -18 1q-25 0 -26 1zM275 359q-70 0 -70 -109q0 -48 18 -74.5t48 -26.5q32 0 51 26.5t19 73.5q0 46 -18.5 78t-47.5 32z" />
<glyph unicode="e" horiz-adv-x="519" d="M273 522q82 0 149.5 -53.5t70.5 -92.5l-27 -102l-193 -106q15 -18 177 -18q-1 -29 -6.5 -69.5t-10.5 -66.5l-5 -25q-29 -2 -56 -2q-150 0 -244 65q-111 77 -111 215q0 128 73 191.5t183 63.5zM275 386q-49 0 -71 -34q-14 -20 -14 -40q0 -13 6 -27l122 75q-3 9 -16 17.5 t-27 8.5z" />
<glyph unicode="f" horiz-adv-x="449" d="M48 0q-7 4 -15 75q-5 44 -5 61q0 11 2 12t22 4l40 8q19 3 19 4l-12 176l-76 -1l-2 147q1 1 21 1.5t39.5 0.5t19.5 1v27q0 10 3 38.5t8.5 49t17.5 48t29 44.5t44 29.5t61 12.5q101 0 197 -61l6 -4l-82 -132q-39 23 -77 23q-14 0 -21 -19t-7 -37v-19l119 -7q6 -21 7 -58 q1 -16 1 -30q0 -18 -1 -33l-1 -26l-123 2l3 -173l87 -6l5 -158q-161 -2 -243.5 -2t-85.5 2z" />
<glyph unicode="g" d="M285 357q-38 0 -60.5 -25t-22.5 -70q0 -42 24 -68.5t55 -26.5q34 0 56 25.5t22 67.5q0 40 -21.5 68.5t-52.5 28.5zM548 344q15 -210 15 -337q0 -28 -6.5 -58.5t-24 -65.5t-44.5 -62t-72 -45t-102 -18q-61 0 -106.5 15t-61.5 30l-15 15l57 144q40 -35 113 -35q53 0 73 46 q13 27 13 49q0 15 -6 28q-4 -6 -13 -14.5t-44.5 -22.5t-80.5 -14q-29 0 -58.5 7.5t-59.5 27t-52.5 49t-37 77t-14.5 106.5q0 68 20.5 118t54.5 76.5t71.5 39t78.5 12.5q80 0 146 -48l2 -2v50q53 2 106 3h35l71 -1q0 -2 1.5 -40.5t2.5 -75.5l2 -37q-2 0 -32.5 -8t-31.5 -9z " />
<glyph unicode="h" d="M593 269l-1 -131l42 -9q3 -49 3.5 -81.5t-3.5 -48.5l-259 3l-5 127l49 9l-1 107q0 101 -76 101q-30 0 -52.5 -28.5t-22.5 -72.5l1 -110l60 -13l2 -120q-1 -1 -17 -1.5t-40.5 -1t-53.5 -0.5h-59q-30 0 -53.5 0.5t-39 0.5t-14.5 0q-1 7 -2 19.5t-3 46.5t-2 62l56 4l1 431 q-1 1 -40 6t-42 5l1 32q2 33 3.5 67.5t1.5 36.5t60.5 4.5t120.5 3.5l61 2v-232q4 4 12 10t38.5 16.5t68.5 10.5q205 0 205 -256z" />
<glyph unicode="i" horiz-adv-x="426" d="M309 467v-332l82 -13l2 -120q-1 -1 -20.5 -1.5t-50.5 -1t-68 -0.5h-74q-37 0 -66.5 0.5t-49 0.5t-18.5 0q-1 7 -2 19.5t-3 46.5t-2 62l86 4l1 203q0 1 -13 1l-27 -2q-14 0 -27 -1l-13 -1q-1 0 -8.5 66t-7.5 70q0 3 55 6q39 1 86 1h38q69 -1 100 -8zM201 768 q41 0 72.5 -30t31.5 -69q0 -45 -23 -76t-70 -31q-51 0 -79 27q-30 29 -30 78q0 45 28 73q29 28 70 28z" />
<glyph unicode="j" horiz-adv-x="331" d="M269 462q13 -25 25 -183t12 -280q0 -31 -3 -59.5t-14.5 -64.5t-31 -62t-55 -44.5t-82.5 -18.5q-99 0 -171 60l-6 5l82 135q21 -20 59 -20q42 0 42 63q0 65 -10 161t-19 137l-67 9l-5 167h95q146 0 149 -5zM168 768q41 0 72.5 -30t31.5 -69q0 -45 -23 -76t-70 -31 q-51 0 -79 27q-30 29 -30 78q0 45 28 73q29 28 70 28z" />
<glyph unicode="k" horiz-adv-x="701" d="M31 -2q-1 3 -5 70q-2 37 -2 54q0 12 1 12l72 5l-2 416q-78 1 -79 3v8q0 14 1 57q2 64 3 66t113 17q94 13 112 13h4q8 -6 12 -35.5t5 -79t1 -94t-1 -106.5t-1 -91q104 56 104 62q0 3 -22 8.5t-23 7.5q-1 3 -5 54.5t-4 57.5q8 1 42 1h39q70 -1 151.5 -4.5t81.5 -6.5v-133 q0 -2 -9 -2t-25 2q-25 2 -32 2h-2q-5 -3 -53 -43q-51 -43 -51 -45q0 -7 69 -73q72 -69 78 -71q2 -1 18.5 -2.5t31.5 -3.5l16 -2q1 -1 4 -60q3 -38 3 -53q0 -8 -1 -8q-4 -3 -158 -7q-52 -1 -87 -1q-70 0 -74 5q-2 6 -5.5 37.5t-5.5 59.5t-1 28q4 0 21 3.5t17 5.5 q-12 14 -59 52q-38 31 -49 31q-3 0 -4 -1q-3 -4 -3 -75q0 -3 21 -7.5t21 -5.5t-2 -60.5t-2 -62.5q0 -5 -275 -5z" />
<glyph unicode="l" horiz-adv-x="426" d="M310 727v-582l82 -7l2 -136q-1 -1 -20 -1.5t-49 -1t-65 -0.5h-72q-37 0 -65.5 0.5t-47.5 0.5t-18 0q-2 8 -5 22t-7.5 51t-4.5 65l86 14l-3 419q-1 1 -32 6t-34 5q-1 0 -8.5 66t-7.5 70q0 3 54.5 8t114.5 6q11 1 21 1q46 0 79 -6z" />
<glyph unicode="m" horiz-adv-x="981" d="M586 272l-1 -132l43 -6q3 -52 3 -86t-3 -50l-258 7l-4 126l47 9l-1 115q0 100 -64 100q-27 0 -44.5 -28t-17.5 -72l1 -118l42 -13l2 -119q-3 -4 -279 -4q-1 7 -2 20t-3 47t-2 62l61 10l1 204q-5 5 -70 5q-1 0 -10.5 72.5t-9.5 76.5q0 2 49.5 13t99.5 21l49 9l26 -66 q5 6 14 15t41 24.5t67 15.5q125 0 167 -70q44 65 168 65q39 0 73 -11.5t66.5 -38t51 -79t18.5 -126.5l-7 -130l53 -9q3 -49 3 -81t-3 -48l-278 -1l-4 126l41 13l-1 115q0 50 -14 71t-48 21q-24 0 -43 -20t-20 -55z" />
<glyph unicode="n" d="M593 269l-1 -131l42 -9q3 -49 3.5 -81.5t-3.5 -48.5l-259 3l-5 127l49 9l-1 107q0 101 -76 101q-30 0 -52.5 -28.5t-22.5 -72.5l1 -110l60 -13l2 -120q-1 -1 -17.5 -1.5t-42 -1t-55.5 -0.5h-61q-31 0 -55.5 0.5t-40.5 0.5t-15 0q-1 7 -2 19.5t-3 46.5t-2 62l66 4l1 239 q-4 1 -16 0t-28 -2l-16 -1q-1 0 -8.5 68t-7.5 72q0 5 198 26l32 -72q5 7 15 17.5t44 28t72 17.5q205 0 205 -256z" />
<glyph unicode="o" horiz-adv-x="549" d="M279 513q109 0 177 -70t68 -193q0 -113 -62 -191.5t-182 -78.5t-190 66.5t-70 205.5q0 136 71.5 198.5t187.5 62.5zM283 348q-42 0 -61.5 -29t-19.5 -74q0 -42 25.5 -68t55.5 -26q31 0 50 24t19 70q0 43 -17.5 73t-51.5 30z" />
<glyph unicode="p" d="M244 509l21 -44q3 5 11 12.5t41.5 19.5t78.5 12q30 0 59.5 -7.5t60.5 -27t55 -48.5t39 -76.5t15 -106.5q0 -74 -20 -127t-54 -79.5t-70.5 -38t-78.5 -11.5q-38 0 -67 8t-39 16l-10 8v-99q97 -11 101 -14q3 -2 3 -37q1 -18 1 -33.5t-1 -30.5v-17q0 -14 1 -17h-361l-6 136 l76 6l-1 417h-74l-7 148q-1 0 55 9t113 17q44 5 55 5h3zM375 142q70 0 70 105q0 48 -18 74.5t-48 26.5q-32 0 -51 -26.5t-19 -73.5q0 -45 18.5 -75.5t47.5 -30.5z" />
<glyph unicode="q" horiz-adv-x="594" d="M398 519q1 1 4 1q8 0 37 -4q39 -6 77 -12.5t37 -6.5l-8 -582q1 -1 36.5 -4.5t39.5 -3.5l-1 -33q0 -33 -0.5 -68t-0.5 -36q0 -4 -244 -4h-108v137l90 16v102q-4 -4 -11.5 -9t-37.5 -14t-68 -9q-42 0 -78.5 11.5t-70.5 38t-53.5 79.5t-19.5 127q0 73 21 128t55 84.5 t70.5 43t73.5 13.5q94 0 137 -40l2 -2q19 41 21 47zM275 153q30 0 48 26t18 71q0 46 -19.5 71t-52.5 25q-64 0 -64 -97q0 -50 17 -73t53 -23z" />
<glyph unicode="r" horiz-adv-x="572" d="M510 398q-26 -36 -52 -67q-23 -29 -27 -29q-40 40 -76 40q-39 0 -63 -28t-24 -73q0 -65 8 -96l102 -13l2 -130q-1 -1 -20 -1.5t-49 -1t-65 -0.5h-72q-37 0 -65.5 0.5t-47.5 0.5t-18 0q-1 8 -2 22t-3 51t-2 65l66 4l1 235q-4 1 -16 0t-28 -2l-16 -1q-1 0 -8.5 63t-7.5 67 q0 2 50.5 11t100.5 17l51 7l32 -68q4 5 12 13t38.5 21.5t68.5 13.5q40 0 79.5 -18.5t58.5 -36.5q19 -17 19 -22q0 -8 -27 -44z" />
<glyph unicode="s" horiz-adv-x="500" d="M318 494l6 35q17 1 32 1q75 0 111 -13q1 0 1 -9q0 -10 -2 -32q-2 -40 -5.5 -85.5t-3.5 -51.5q-4 -3 -24 -3h-11q-31 1 -66.5 3.5t-35.5 4.5q-2 22 -18 33t-34 11q-31 0 -31 -25q0 -9 13.5 -17.5t45.5 -21.5t46 -20q52 -24 88.5 -68.5t36.5 -105.5q0 -60 -49 -101.5 t-116 -41.5q-94 0 -130 33q-1 -6 -2 -17t-2 -17l-1 -7l-136 11q-2 15 -2 192q30 5 74 6h25q21 0 25 -1q9 -27 26.5 -42.5t34.5 -15.5q37 0 37 26q0 9 -4 16.5t-14 13.5t-18 10t-23.5 10.5t-23.5 9.5q-27 12 -46 23.5t-40 30.5t-32 48t-11 66q0 56 49.5 98t132.5 42 q64 0 97 -29z" />
<glyph unicode="t" horiz-adv-x="504" d="M110 621q12 8 57 15.5t84 10.5l39 3l6 -153l126 2q2 -35 2 -63q0 -53 -8 -84l-132 -7l-1 -82q4 -87 28 -87q31 0 74 31l72 -144q-4 -3 -10.5 -9t-28.5 -20.5t-44.5 -26t-55 -20.5t-63.5 -9q-29 0 -52.5 6.5t-40 22.5t-28 31t-19 45t-11.5 49.5t-5.5 60t-2 62t-0.5 68.5 v22q0 1 -17.5 1t-35 0.5t-18.5 1.5l2 147l72 8q11 116 11 118z" />
<glyph unicode="u" d="M70 243l1 114l-42 4q-2 11 -4 27.5t-6 57.5q-2 18 -2 30q0 15 3 19l229 16q0 -67 1 -241q0 -101 71 -101q29 0 47 28t18 73l-1 71l-66 3l-8 142l248 19v-343q1 -1 31.5 -7t32.5 -6q1 0 1 -151q0 -2 -47 -3.5t-94 -2.5h-47l-17 44q-6 -5 -17.5 -13.5t-47.5 -22t-74 -13.5 q-42 0 -76.5 11.5t-66 38t-49.5 79t-18 127.5z" />
<glyph unicode="v" horiz-adv-x="693" d="M95 373l-63 3q-2 11 -4 26.5t-6 55.5q-3 19 -3 31q0 13 3 17l299 -3l5 -128l-56 -2l76 -170l72 167l-50 3l-2 130q1 1 17.5 1.5t42 1t55.5 0.5h61q31 0 55.5 -0.5t40.5 -0.5t15 0q1 -7 2 -19.5t3 -46.5t2 -62l-60 -4q-124 -288 -185 -379q-50 -3 -86 -3q-52 0 -77 6 q-142 294 -157 376z" />
<glyph unicode="w" horiz-adv-x="976" d="M534 457l133 -211l48 121l-57 3l1 133q1 1 18 1.5t43.5 1t57.5 0.5h62q32 0 57.5 -0.5t42 -0.5t15.5 0q1 -8 2 -21t3 -48.5t2 -63.5l-60 -4q-99 -283 -160 -374q-33 -3 -60 -3q-38 0 -63 6l-136 218l-121 -221q-37 -3 -67 -3q-41 0 -66 6q-122 291 -137 373l-63 3 q-2 11 -4 27l-7 57q-2 19 -2 31q0 14 3 18l299 -3l5 -131l-53 -2l53 -122l120 212z" />
<glyph unicode="x" horiz-adv-x="670" d="M327 203l-45 -63q0 -2 15 -5.5t18 -3.5q1 0 3 -29q1 -22 1 -45q0 -8 -1 -16q0 -32 -2 -38q-5 -7 -101 -7h-39q-133 2 -137 5q-2 1 -3 65q-1 38 -1 53v11l11 2q12 2 24.5 3.5t14.5 2.5q5 2 52 57q44 52 44 59q0 2 -43 52q-41 47 -44 49h-2q-7 0 -32 -2q-16 -1 -25 -1t-9 1 v140q0 3 71 5.5t132 2.5t71 -2q0 -1 2 -32l6 -61q1 -21 1 -29q0 -4 -1.5 -4.5t-11.5 -0.5q-11 -1 -21.5 -1t-10.5 -3t15 -21l29 -35l14 -16q62 72 62 78q0 3 -12 2l-22 -2q-10 -1 -13 1q-1 2 -1 20v39l2 39v20q0 2 69 5t129 4h15q45 0 54 -3v-136q-2 -3 -26 -3.5t-25 -1.5 q-2 -2 -44 -50q-45 -52 -45 -54q0 -7 53 -59q56 -55 62 -57q2 -1 14.5 -2.5t23.5 -3.5l12 -2q1 -1 4 -63q3 -39 3 -54q0 -9 -1 -9q-4 -3 -138 -5h-49q-87 0 -92 6q-2 6 -5.5 37.5t-5.5 60t-1 28.5q4 0 21 3.5t17 5.5z" />
<glyph unicode="y" horiz-adv-x="693" d="M87 373l-55 3q-2 11 -4 26.5t-6 55.5q-3 19 -3 31q0 13 3 17l299 1l5 -132l-56 -2l76 -141l72 138l-50 3l-2 130q1 1 32 1q10 1 21 1q23 0 51 -1l84 -2q41 -1 70.5 -2t28.5 -1q1 -7 2 -19.5t3 -46.5t2 -62l-55 -3q-271 -534 -332 -625q-6 1 -15.5 3.5t-35.5 10t-47.5 17 t-43.5 24t-31 30.5q-3 0 34 58l73 116q37 59 35 59q-140 230 -155 312z" />
<glyph unicode="z" horiz-adv-x="573" d="M41 506q459 0 459 -3q0 -1 6 -33l10 -65q4 -27 4 -31q0 -1 -27 -25l-62 -57l-72 -66l-61 -56q-25 -23 -24 -23l16 -1q17 0 35.5 -0.5t35 -1t16.5 0.5t1 16l2 29q1 15 2 15q145 0 151 -9q2 -7 2 -34v-20q-1 -43 -3 -92l-3 -49h-473q-1 0 -13.5 66t-11.5 67q0 1 66 63 l131 123q65 62 63 62q-1 0 -24.5 2.5t-45.5 4.5t-23 1l-11 -64q-141 10 -149 14q-3 1 -3 31q0 41 6 135z" />
<glyph unicode="{" horiz-adv-x="411" d="M386 745q5 -12 6 -43q1 -13 1 -25q0 -16 -1 -31q-2 -26 -5 -26q-124 -18 -124 -72q0 -34 -1.5 -92.5t-1.5 -66.5q0 -24 -8.5 -44.5t-20 -32t-23.5 -20t-20 -11.5l-9 -3q3 -2 8.5 -5t19.5 -13t24.5 -21t19.5 -28t9 -35q0 -15 -1.5 -111.5t-1.5 -124.5q0 -23 30.5 -39 t60.5 -21q18 -4 26 -4q6 0 6 2l1 -112q-1 -1 -27 -2h-9q-24 0 -57 4q-39 6 -77.5 19.5t-66 45.5t-27.5 79v261q0 13 -21 22.5t-45 14.5t-26 6q-5 4 -7 67v35q0 29 2 31q1 1 30.5 2t58 9.5t28.5 28.5q0 13 3.5 91t3.5 93q0 41 20 73.5t48.5 50.5t64 29.5t62 15t47.5 3.5z" />
<glyph unicode="|" horiz-adv-x="231" d="M78 737q4 5 26 7q15 1 28 1h14q20 -1 20 -2v-989l-59 -8h-6q-11 0 -12 3q-3 8 -9 496q-3 316 -3 429q0 62 1 63z" />
<glyph unicode="}" horiz-adv-x="411" d="M23 733q23 0 48 -2.5t63 -12t66 -25.5t49 -47.5t21 -72.5q0 -15 3.5 -93t3.5 -91q0 -20 28.5 -28t58 -8.5t30.5 -1.5q3 -5 4 -73q1 -15 1 -27q0 -41 -4 -46q-2 -2 -27.5 -4t-48 -8.5t-22.5 -19.5v-266q0 -47 -27.5 -79t-66 -44.5t-77.5 -17.5q-32 -4 -56 -4h-10 q-26 1 -27 2l1 112q0 -2 7 -2q8 0 25 2q30 5 60.5 20.5t30.5 38.5q0 28 -1.5 127t-1.5 114q0 9 2 17.5t5.5 16t8.5 15t10 13.5t11 11.5t11 9.5l11 7l9 6q3 3 6 4l3 2q-3 1 -10 4t-20 11.5t-24 20t-19 31.5t-8 44v149q0 54 -123 72q-4 1 -7 26q-3 21 -3 47q0 4 1 8q0 30 5 42 z" />
<glyph unicode="~" horiz-adv-x="699" d="M105 174h-1q-4 0 -36 40q-34 42 -34 47q0 3 8.5 15.5t26 31.5t39.5 36.5t53.5 30t63.5 12.5q35 0 69.5 -17.5t58.5 -38t55.5 -38t59.5 -17.5q20 0 36.5 6.5t26.5 16t17.5 22t10.5 21.5l6 20q3 9 3 10q2 5 25.5 -10t46.5 -32t23 -19t-7.5 -18t-24.5 -40.5t-39 -47.5 t-56 -39.5t-70 -16.5q-44 0 -80 17t-56 37.5t-47 37.5t-55 17q-24 0 -45 -8t-34.5 -20.5t-22.5 -24t-14.5 -21.5t-6.5 -10z" />
<glyph unicode="&#xa1;" horiz-adv-x="308" d="M192 179q5 -6 25 -71.5t40 -162t20 -161.5q-12 -8 -106.5 -8t-142.5 10q0 105 18.5 202.5t37 144.5t25.5 48q10 2 33 2q6 0 13 -1q34 0 37 -3zM149 285q-41 0 -72.5 30t-31.5 69q0 45 23 76t70 31q51 0 79 -27q30 -29 30 -78q0 -45 -28 -72q-29 -29 -70 -29z" />
<glyph unicode="&#xa2;" horiz-adv-x="555" d="M430 554h1q5 0 19 -7q16 -8 30 -17l14 -8l-34 -58q41 -34 59 -71q-51 -71 -107 -113q-1 1 -6 7l-12 15q-7 8 -15 15l-93 -161q9 -3 19 -3q41 0 82 47q18 -4 50.5 -29.5t56.5 -48.5l23 -24q-2 -5 -7 -12t-23 -26.5t-40 -34t-60 -26.5t-82 -12q-54 0 -110 18l-41 -72 l-48 21q-8 5 -8 7q0 3 38 72q-110 74 -110 226q0 118 76.5 188.5t177.5 70.5q61 0 118 -22l16 28l12 22zM302 357q-44 0 -69 -28.5t-25 -68.5q0 -50 29 -70l88 161q-10 6 -23 6z" />
<glyph unicode="&#xa3;" horiz-adv-x="584" d="M58 386q23 0 53 -1q-19 116 -19 139q0 93 66.5 140.5t165.5 47.5q43 0 82 -10t63.5 -24.5t43 -31t26.5 -28.5t8 -17q0 -14 -42.5 -67.5t-72.5 -70.5q-2 5 -7 13t-24.5 21.5t-44.5 13.5q-20 0 -32.5 -14.5t-12.5 -41.5t10 -72q108 -2 108 -3q0 -3 -3.5 -34t-4.5 -33 q-1 -1 -88 -3q3 -20 3 -38q0 -59 -29 -87q0 -3 46.5 -3.5t99.5 -1t65 -3.5q7 -24 10 -67q1 -32 1 -57v-19q-1 -32 -3 -34q-2 -1 -51 -1q-57 0 -179 1q-143 3 -198 3q-32 0 -35 -1q-3 0 -3.5 11t0.5 29l2 35q1 17 2.5 33.5t1.5 19.5q59 15 59 122q0 24 -3 54q-68 0 -69 1 q-2 1 -2 14q0 9 1 25q3 38 6 40z" />
<glyph unicode="&#xa4;" horiz-adv-x="576" d="M68 132l49 46q-33 49 -33 127q0 50 15 86q-49 47 -49 57q0 1 1 2q3 3 19 23l28 37q14 16 16 14l51 -58q49 29 122 29q63 0 111 -31l69 64q58 -60 58 -68q0 -10 -61 -76q14 -37 14 -80q0 -74 -37 -126l63 -68q-1 -1 -16 -14l-32 -28q-18 -16 -23 -20q-1 -1 -2 -1 q-15 0 -76 69q-29 -10 -68 -10q-50 0 -88 13q-55 -60 -69 -60q-3 0 -4 2t-19 22t-29.5 34t-9.5 15zM285 384q-39 0 -57.5 -24.5t-18.5 -62.5q0 -36 24.5 -58.5t51.5 -22.5q33 0 52 21t19 60q0 35 -18 61t-53 26z" />
<glyph unicode="&#xa5;" horiz-adv-x="702" d="M134 381q58 -1 111 -1q-20 27 -53 66l-55 64q-22 25 -24 25q-9 0 -20 1l-38 6q-19 2 -19 3v17q1 16 1 38.5t0.5 45.5t0.5 39t-1 16l294 -5l11 -137q-1 -2 -48 -2l17 -19l35 -40l17 -20q4 5 11.5 13.5t21.5 26.5l24 30q10 13 9 14t-40 1q-2 1 -2 39v30q1 69 2 70h11 q28 0 124 -2q134 -2 139 -4t9 -68q4 -46 4 -61q0 -6 -1 -7q-3 -3 -61 -3q-4 0 -139 -181l71 -2q0 -3 -3.5 -34t-4.5 -33q-1 -1 -93 -3q0 -4 0.5 -18t0.5 -20q92 0 106 -3q2 -1 2 -33q1 -11 1 -18q0 -15 -1 -16q-2 -2 -107 -6q0 -17 0.5 -30t0.5 -19v-7q0 -4 14 -5t29.5 -1 t17.5 -2q3 -4 3 -124q0 -3 -155 -6q-121 -3 -149 -3h-8q-2 1 -3 64q0 31 -0.5 47t0.5 17q1 0 18 2t33.5 4.5t16.5 3.5v52q-73 -2 -93 -2h-7q-4 1 -6 39q-1 16 -1 25q0 14 2 15q45 1 105 3v39q-66 -1 -100 -1t-36 1t-2 14q0 9 1 26q3 37 6 39z" />
<glyph unicode="&#xa6;" horiz-adv-x="231" d="M86 737q4 5 24 7q13 1 26 1h12q18 -1 18 -2v-360l-14 -3q-9 -1 -32 -3q-9 -1 -15 -1q-11 0 -16 2q-7 1 -7 178t4 181zM85 116q4 5 23 6h16h22q17 -2 17 -3l3 -365l-59 -8h-6q-11 0 -12 3q-3 8 -5 185q-1 71 -1 114q0 65 2 68z" />
<glyph unicode="&#xa7;" horiz-adv-x="500" d="M182 -193l-8 -60q-12 -1 -23 -1q-56 0 -92 13q-1 0 -1 10q0 11 2 36q2 45 5.5 95.5t3.5 56.5q0 4 29 5.5t58.5 1.5t29.5 -2q4 -31 25 -52.5t51 -21.5t43.5 13t13.5 32q0 24 -32 44t-77.5 39.5t-91 44.5t-77.5 70.5t-32 106.5q0 115 74 179q-44 49 -44 113q0 72 52 126 t140 54q15 0 28 -1.5t24.5 -4t21 -5.5t18.5 -7l15 -8q6 -3 12.5 -8.5t9.5 -7.5t8 -7l6 -5l8 60h23q56 0 92 -12q1 0 1 -10q0 -11 -2 -36q-2 -45 -5.5 -95.5t-3.5 -56.5q0 -4 -29.5 -5.5t-58.5 -1.5t-29 2q-4 31 -25 52.5t-51 21.5t-43.5 -13t-13.5 -32q0 -24 32 -44 t77.5 -39.5t91 -44.5t77.5 -70.5t32 -106.5q0 -116 -75 -179q45 -50 45 -113q0 -72 -52 -126t-140 -54q-15 0 -28 1.5t-24.5 4t-21 5.5t-18.5 8l-15 7q-6 3 -12.5 8.5t-9.5 7.5t-8 7zM380 181q0 15 -4.5 28.5t-17.5 26.5l-21 23q-9 9 -31 23l-33 19q-10 6 -40 21t-38 20 q-19 -24 -19 -60q0 -12 3 -23t10.5 -22t13.5 -19t20 -18l22 -16q8 -6 27 -16l28 -16l30 -16l31 -15q19 22 19 60z" />
<glyph unicode="&#xa8;" horiz-adv-x="554" d="M143 764q39 0 69.5 -29t30.5 -66q0 -44 -21.5 -73.5t-66.5 -29.5q-49 0 -75 26q-29 28 -29 75q0 43 26 69q27 28 66 28zM405 764q39 0 69 -29t30 -66q0 -44 -21.5 -73.5t-66.5 -29.5q-49 0 -76 26q-28 28 -28 75q0 43 26 69q28 28 67 28z" />
<glyph unicode="&#xa9;" horiz-adv-x="768" d="M402 712q152 0 249 -94.5t97 -260.5q0 -73 -21 -137t-62.5 -116t-110.5 -82.5t-158 -30.5q-167 0 -271.5 94.5t-104.5 250.5q0 187 106 281.5t276 94.5zM403 641q-82 0 -143.5 -25t-96.5 -68.5t-51.5 -96.5t-16.5 -115q0 -130 88 -204.5t214 -74.5q115 0 190 71t75 208 q0 59 -15 112t-45 97t-81 70t-118 26zM445 548l17 -1q17 -1 40.5 -5t34.5 -11q1 -5 1 -20v-17q-1 -31 -2 -66l-2 -35l-99 -15q-1 6 -4 14.5t-18 23t-36 14.5t-35.5 -21.5t-14.5 -61.5q0 -39 19.5 -59t43.5 -20q9 0 18.5 2.5t17.5 7t13.5 8.5t10.5 8t6 5q27 -14 81 -70 q-1 -3 -4.5 -9t-15.5 -20t-27 -25t-42 -20t-58 -9q-76 0 -133 53.5t-57 147.5q0 97 50 144t120 47q20 0 37 -8t24 -16l7 -8z" />
<glyph unicode="&#xaa;" horiz-adv-x="462" d="M184 713q23 0 45 -7.5t33 -15.5l11 -7v30q34 1 69 1q11 1 22 1q23 0 46 -1l4 -90q-1 0 -22.5 -4.5t-22.5 -5.5l2 -107h18q31 0 32 -3q1 -2 1 -23v-25q-1 -46 -2 -46q-146 0 -146 4l-6 31l-8 -11q-6 -7 -28 -18t-50 -11q-52 0 -97 38.5t-45 121.5q0 77 44 112.5t100 35.5z M206 614q-20 0 -32.5 -13.5t-12.5 -37.5q0 -23 12.5 -37t29.5 -14q18 0 30 14t12 36t-11.5 37t-27.5 15z" />
<glyph unicode="&#xab;" horiz-adv-x="567" d="M233 481l16 -7q60 -24 60 -27l-123 -216l126 -213l-84 -54q-1 -1 -50 61l-98 125q-48 63 -48 65zM453 460h1q5 0 30 -18q29 -21 29 -24q0 -1 -48 -94t-47 -95q0 -1 52 -88.5t52 -90.5t-34.5 -32t-36.5 -28t-91 123.5t-89 127.5t89 110.5t93 108.5z" />
<glyph unicode="&#xac;" horiz-adv-x="549" d="M479 163q0 -5 -51 -11q-30 -4 -43 -4q-10 0 -10 2q-7 48 -7 158q-97 -5 -172 -5q-95 0 -153 8q-3 0 -4 25q0 13 -0.5 26t0.5 26q1 25 2 25q15 3 436 11z" />
<glyph unicode="&#xad;" horiz-adv-x="432" />
<glyph unicode="&#xae;" horiz-adv-x="518" d="M265 790q104 0 168.5 -62t64.5 -172q0 -100 -59 -169.5t-173 -69.5q-111 0 -178.5 60.5t-67.5 170.5q0 115 69.5 178.5t175.5 63.5zM269 725q-94 0 -136.5 -50.5t-42.5 -130.5q0 -76 52.5 -121t126.5 -45q69 0 112 42t43 124q0 75 -38.5 128t-116.5 53zM166 454l-1 4 q-1 5 -1.5 12t-1.5 14q-1 5 -1 8q0 9 2 9q20 0 20 3v104q-20 0 -20 1q-1 2 -0.5 28t1.5 28h20q14 0 37.5 -0.5t30.5 -0.5q93 0 93 -56q0 -19 -7.5 -34.5t-15.5 -21.5l-8 -6l25 -47q19 1 19 0v-7q1 -8 1 -16v-16v-8q-1 -2 -30 -2h-17q-45 1 -46 3t-0.5 22.5t1.5 22.5 q6 2 10 2q0 2 -7 17t-8 15l-13 -1l-13 -1v-30l14 -1v-46zM236 576h10q11 1 21.5 5.5t10.5 15.5q0 8 -10 11q-7 1 -14 1h-6l-11 -1v-6q0 -3 -0.5 -10t-0.5 -12v-4z" />
<glyph unicode="&#xaf;" horiz-adv-x="452" d="M55 719q5 2 174 6q75 2 117 2q53 0 55 -3q1 -2 1 -14q0 -18 -2 -58q-3 -65 -5 -65q-1 0 -168.5 -4t-171.5 -4t-4 48v21q1 69 4 71z" />
<glyph unicode="&#xb0;" horiz-adv-x="318" d="M169 707q58 0 94.5 -35t36.5 -96q0 -57 -33 -96.5t-98 -39.5q-139 0 -139 137q0 67 38.5 98.5t100.5 31.5zM168 631q-27 0 -40 -17t-13 -43q0 -24 17 -39.5t36 -15.5q22 0 35.5 14.5t13.5 40.5q0 24 -12.5 42t-36.5 18z" />
<glyph unicode="&#xb1;" horiz-adv-x="622" d="M31 463l224 3v192l110 -1v-182h210v-27q0 -63 -4 -67q-3 -3 -102.5 -12.5t-101.5 -10.5t-2 -20q0 -13 1 -34q1 -35 1 -48v-6q-3 -3 -53 -5h-19q-31 0 -33 5q-1 5 -2 33l-4 54q-1 26 -2 27h-6q-18 0 -98 -2q-56 -2 -83 -2q-23 0 -24 1q-2 2 -5.5 27.5t-5.5 50t-1 24.5z M535 183q5 0 6 -46v-17q0 -29 -3 -31q-27 -13 -216 -16q-48 -1 -87 -1q-119 0 -165 7q-3 0 -4 25q-1 13 -0.5 26t0.5 26q1 25 2 25z" />
<glyph unicode="&#xb2;" horiz-adv-x="333" d="M161 786q49 0 88.5 -23t39.5 -69q0 -49 -76 -146l76 1q1 -2 2 -13.5t1 -26.5v-29q0 -15 -1 -25t-2 -10h-21q-29 0 -97.5 -0.5t-96.5 -0.5h-19q-2 2 -6.5 40.5t-3.5 47.5q12 13 44.5 44.5t48.5 50.5t16 30q0 6 -6 11.5t-13 5.5q-30 0 -47 -18q-2 -2 -8 5t-12 19l-14 24 q-6 12 -10 21.5t-4 11.5q0 5 13.5 16t43 22t64.5 11z" />
<glyph unicode="&#xb3;" horiz-adv-x="334" d="M169 784q43 0 81 -25q39 -26 39 -72q0 -20 -8 -37q-9 -18 -16 -23.5t-12 -8.5q4 -2 12 -8.5t18.5 -24.5t10.5 -39q0 -49 -43 -79.5t-92 -30.5q-25 0 -46.5 6.5t-34 16t-22 19t-12.5 16.5l-4 6q49 65 52 65q1 0 7 -5.5t17 -11.5t23 -6q15 0 15 15q0 25 -37 25 q-2 4 -1.5 16.5t1.5 26.5l1 14h11q3 0 9.5 1t9.5 3.5t5.5 7t2.5 11.5q0 19 -18 19q-21 0 -39 -14q-2 2 -5 6.5t-11 15.5l-14 20q-6 9 -10.5 18t-4.5 12q1 7 12.5 16.5t39.5 19t63 9.5z" />
<glyph unicode="&#xb4;" horiz-adv-x="452" d="M50 691l278 112q11 4 12 4q4 -1 20 -37t30 -72q11 -30 11 -35q0 -1 -70 -24l-142.5 -46t-78.5 -23h-1q-7 4 -22 34t-26 58z" />
<glyph unicode="&#xb5;" d="M86 -234q-2 44 -5.5 114t-8.5 228q-2 96 -2 166q0 47 1 83l-42 4q-2 11 -4 27.5t-6 57.5q-2 18 -2 30q0 15 3 19l229 16q0 -67 1 -241q0 -101 71 -101q29 0 47 28t18 73l-1 71l-66 3l-8 142l248 19v-343q1 -1 31.5 -7t32.5 -6q1 0 1 -151q0 -2 -47 -3.5t-94 -2.5h-47 l-17 44q-54 -49 -105 -49q-35 0 -69 14q1 -44 4.5 -101t6.5 -89q1 -18 1 -26q0 -6 -1 -6z" />
<glyph unicode="&#xb6;" horiz-adv-x="796" d="M445 537q-23 -528 -25 -769l-127 -4q-16 0 -17 2q-2 37 -2 121q0 139 6 407q-39 0 -77 10t-73 30.5t-56.5 58t-22.5 87.5v6q0 51 15 90q16 42 41.5 65.5t64.5 38t77 19.5t85 5q392 0 409 -5q3 -1 3 -26q0 -39 -7 -138q-30 0 -68 1q0 -11 0.5 -188t0.5 -320v-260l-127 -4 q-16 0 -17 2q-3 73 -3 257q0 68 1 153q1 308 3 361h-84z" />
<glyph unicode="&#xb7;" horiz-adv-x="308" d="M155 482q41 0 72.5 -30t31.5 -69q0 -45 -23 -76t-70 -31q-51 0 -79 27q-30 29 -30 78q0 45 28 73q29 28 70 28z" />
<glyph unicode="&#xb8;" horiz-adv-x="297" d="M112 12h35q50 0 83 -2l-4 -61q3 -1 8.5 -3.5t19.5 -11.5t24.5 -19.5t19.5 -29t9 -39.5q0 -15 -5.5 -29t-15 -25t-22 -20t-26.5 -15.5t-27.5 -12t-26.5 -8.5l-22 -6q-10 -3 -16 -4l-6 -1q-1 -1 -9 21.5t-14 45t-4 23.5q1 0 9 1.5t17 4.5t18.5 7t15.5 10.5t6 14.5 q0 16 -17.5 26.5t-34.5 12.5l-17 2z" />
<glyph unicode="&#xb9;" horiz-adv-x="312" d="M145 799l85 -22l-3 -229q0 -1 19.5 -0.5t22.5 -2.5q1 -1 1.5 -6.5t0.5 -14.5v-18q0 -9 -0.5 -19t-0.5 -18v-13l-1 -5q-1 -1 -204 -1l-2 96l50 1l4 130q-38 -18 -40 -18q-4 0 -19 25q-17 27 -17 29q0 1 26 23l52 42q26 22 26 21z" />
<glyph unicode="&#xba;" horiz-adv-x="318" d="M169 707q58 0 94.5 -35t36.5 -96q0 -57 -33 -96.5t-98 -39.5q-139 0 -139 137q0 67 38.5 98.5t100.5 31.5zM168 631q-27 0 -40 -17t-13 -43q0 -24 17 -39.5t36 -15.5q22 0 35.5 14.5t13.5 40.5q0 24 -12.5 42t-36.5 18z" />
<glyph unicode="&#xbb;" horiz-adv-x="567" d="M331 481q191 -262 191 -266q0 -2 -48 -65l-98 -125q-49 -62 -50 -61l-84 54l126 213q-111 211 -113 216q-1 3 31 16q10 4 29 11zM101 460q4 -3 88 -118.5t84 -120.5t-84 -132.5t-86 -128.5t-36.5 28t-34.5 32t52 105.5t52 103.5q1 2 -47 95t-48 94q0 3 29 24q25 18 30 18 h1z" />
<glyph unicode="&#xbc;" horiz-adv-x="810" d="M576 720q7 0 43.5 -28t34.5 -36q-3 -14 -242 -348q-233 -327 -247 -327h-1q-8 5 -28.5 23t-38 35t-16.5 18l123 167l245 331q123 165 127 165zM503 341l94 3v-118h32l4 79q97 -3 98 -3l2 -80q37 0 37 -1v-84l-41 -2q-1 -47 -1 -48l8 -1q7 0 15.5 -1t10.5 -2q3 -2 3 -84 q0 -1 -194 -1l1 22v46l1 22l52 1l3 46l-127 6l1 50v100zM145 759l85 -22l-3 -229q0 -1 19.5 -0.5t22.5 -2.5q1 -1 1.5 -6.5t0.5 -14.5v-18q0 -9 -0.5 -19t-0.5 -18v-13l-1 -5q-1 -1 -204 -1l-2 96l50 1l4 130q-38 -18 -40 -18q-4 0 -19 25q-17 27 -17 29q0 1 26 23l52 42 q26 22 26 21z" />
<glyph unicode="&#xbd;" horiz-adv-x="769" d="M576 720q7 0 43.5 -28t34.5 -36q-3 -14 -242 -348q-233 -327 -247 -327h-1q-8 5 -28.5 23t-38 35t-16.5 18l123 167l245 331q123 165 127 165zM597 341q49 0 88.5 -23t39.5 -69q0 -49 -76 -146l76 1q1 -2 2 -13.5t1 -26.5v-30q0 -14 -1 -24t-2 -10h-21q-29 0 -97.5 -0.5 t-96.5 -0.5h-19q-2 2 -6.5 40.5t-3.5 47.5q12 13 44.5 44.5t48.5 50.5t16 30q0 6 -6 11.5t-13 5.5q-30 0 -47 -18q-2 -2 -8 5t-12 18l-14 24q-6 13 -10 22.5t-4 11.5q0 5 13.5 16t43 22t64.5 11zM145 759l85 -22l-3 -229q0 -1 19.5 -0.5t22.5 -2.5q1 -1 1.5 -6.5t0.5 -14.5 v-18q0 -9 -0.5 -19t-0.5 -18v-13l-1 -5q-1 -1 -204 -1l-2 96l50 1l4 130q-38 -18 -40 -18q-4 0 -19 25q-17 27 -17 29q0 1 26 23l52 42q26 22 26 21z" />
<glyph unicode="&#xbe;" horiz-adv-x="810" d="M576 720q7 0 43.5 -28t34.5 -36q-3 -14 -242 -348q-233 -327 -247 -327h-1q-8 5 -28.5 23t-38 35t-16.5 18l123 167l245 331q123 165 127 165zM503 341l94 3v-118h32l4 79q97 -3 98 -3l2 -80q37 0 37 -1v-84l-41 -2q-1 -47 -1 -48l8 -1q7 0 15.5 -1t10.5 -2q3 -2 3 -84 q0 -1 -194 -1l1 22v46l1 22l52 1l3 46l-127 6l1 50v100zM169 744q43 0 81 -25q39 -26 39 -72q0 -20 -8 -37q-9 -18 -16 -23.5t-12 -8.5q4 -2 12 -8.5t18.5 -24.5t10.5 -39q0 -49 -43 -79.5t-92 -30.5q-25 0 -46.5 6.5t-34 16t-22 19t-12.5 16.5l-4 6q49 65 52 65q1 0 7 -5.5 t17 -11.5t23 -6q15 0 15 15q0 25 -37 25q-2 4 -1.5 16.5t1.5 26.5l1 14h11q3 0 9.5 1t9.5 3.5t5.5 7t2.5 11.5q0 19 -18 19q-21 0 -39 -14q-2 2 -5 6.5t-11 15.5l-14 20q-6 9 -10.5 18t-4.5 12q1 7 12.5 16.5t39.5 19t63 9.5z" />
<glyph unicode="&#xbf;" horiz-adv-x="531" d="M361 218q4 -4 4 -41.5t-2 -72.5l-2 -35q-20 0 -29 -0.5t-25.5 -3.5t-24.5 -8.5t-14.5 -17.5t-6.5 -30q0 -23 14 -36.5t35 -13.5q24 0 48 16t36 32l11 16q4 -4 11 -10t24 -22t30 -30t23 -28q9 -13 9 -20q0 -9 -16 -33q-13 -21 -37 -46t-65 -43.5t-87 -18.5 q-103 0 -169 61.5t-66 165.5q0 68 24.5 115.5t68.5 70t95 30.5q31 5 66 5q22 0 45 -2zM300 291q-41 0 -72.5 30t-31.5 69q0 45 23 76t70 31q51 0 79 -27q30 -29 30 -78q0 -45 -28 -72q-29 -29 -70 -29z" />
<glyph unicode="&#xc0;" horiz-adv-x="701" d="M330 2l-290 -14q-6 13 -9.5 49t-4.5 65v30l66 16q20 110 51 248t52 221l21 83q19 5 52 5q8 0 17 -1q45 -1 89 -6l45 -4l195 -551h58v-147l-244 -9q-33 0 -36 2q-7 5 -13 73q-3 37 -3 55q0 14 2 15l51 3l-27 81l-135 2l-13 -66l68 -9q1 -9 2 -22t3.5 -48.5t2.5 -48.5v-22z M373 346l-50 130l-39 -135zM498 882q-38 -124 -52 -124q-6 0 -142 39q-150 43 -150 45q0 5 10 34q13 34 28 69q15 36 19 36q5 0 74 -24l143 -50z" />
<glyph unicode="&#xc1;" horiz-adv-x="701" d="M330 2l-290 -14q-6 13 -9.5 49t-4.5 65v30l66 16q20 110 51 248t52 221l21 83q19 5 52 5q8 0 17 -1q45 -1 89 -6l45 -4l195 -551h58v-147l-244 -9q-33 0 -36 2q-7 5 -13 73q-3 37 -3 55q0 14 2 15l51 3l-27 81l-135 2l-13 -66l68 -9q1 -9 2 -22t3.5 -48.5t2.5 -48.5v-22z M373 346l-50 130l-39 -135zM135 881l278 112q11 4 12 4q4 -1 20 -37t29 -72q12 -30 12 -35q0 -1 -70 -24l-142.5 -46t-78.5 -23h-1q-7 4 -22 34t-26 58z" />
<glyph unicode="&#xc2;" horiz-adv-x="701" d="M330 2l-290 -14q-6 13 -9.5 49t-4.5 65v30l66 16q20 110 51 248t52 221l21 83q19 5 52 5q8 0 17 -1q45 -1 89 -6l45 -4l195 -551h58v-147l-244 -9q-33 0 -36 2q-7 5 -13 73q-3 37 -3 55q0 14 2 15l51 3l-27 81l-135 2l-13 -66l68 -9q1 -9 2 -22t3.5 -48.5t2.5 -48.5v-22z M373 346l-50 130l-39 -135zM511 880q-69 -103 -85 -111l-116 78l-115 -85q-6 1 -16.5 13t-21.5 29l-21 34l-17 28l-7 11q-1 0 17 15l45 34l54 42l48 34q21 16 23 16q8 0 212 -138z" />
<glyph unicode="&#xc3;" horiz-adv-x="701" d="M330 2l-290 -14q-6 13 -9.5 49t-4.5 65v30l66 16q20 110 51 248t52 221l21 83q19 5 52 5q8 0 17 -1q45 -1 89 -6l45 -4l195 -551h58v-147l-244 -9q-33 0 -36 2q-7 5 -13 73q-3 37 -3 55q0 14 2 15l51 3l-27 81l-135 2l-13 -66l68 -9q1 -9 2 -22t3.5 -48.5t2.5 -48.5v-22z M373 346l-50 130l-39 -135zM87 798q0 3 -0.5 8t-0.5 6q0 8 2 22q1 18 5.5 35t15 38t26 36t41.5 25t60 10q31 0 61.5 -16t51.5 -32.5t31 -16.5q23 1 33 48q99 -8 123 -24q0 -4 -0.5 -10t-3.5 -24t-8 -34.5t-16 -36.5t-25 -34.5t-36.5 -24.5t-50.5 -10q-25 0 -49 10.5t-39 23 t-32 23t-30 10.5q-11 0 -17 -11t-9 -25t-5 -16q-1 -1 -5 -1q-21 0 -123 21z" />
<glyph unicode="&#xc4;" horiz-adv-x="701" d="M330 2l-290 -14q-6 13 -9.5 49t-4.5 65v30l66 16q20 110 51 248t52 221l21 83q19 5 52 5q8 0 17 -1q45 -1 89 -6l45 -4l195 -551h58v-147l-244 -9q-33 0 -36 2q-7 5 -13 73q-3 37 -3 55q0 14 2 15l51 3l-27 81l-135 2l-13 -66l68 -9q1 -9 2 -22t3.5 -48.5t2.5 -48.5v-22z M373 346l-50 130l-39 -135zM177 963q39 0 69.5 -29t30.5 -66q0 -44 -21.5 -73.5t-66.5 -29.5q-49 0 -75 26q-29 28 -29 75q0 43 26 70q27 27 66 27zM439 963q39 0 69 -29t30 -66q0 -44 -21.5 -73.5t-66.5 -29.5q-49 0 -76 26q-28 28 -28 75q0 43 26 70q28 27 67 27z" />
<glyph unicode="&#xc5;" horiz-adv-x="701" d="M330 2l-290 -14q-6 13 -9.5 49t-4.5 65v30l66 16q20 110 51 248t52 221l21 83q19 5 52 5q8 0 17 -1q45 -1 89 -6l45 -4l195 -551h58v-147l-244 -9q-33 0 -36 2q-7 5 -13 73q-3 37 -3 55q0 14 2 15l51 3l-27 81l-135 2l-13 -66l68 -9q1 -9 2 -22t3.5 -48.5t2.5 -48.5v-22z M373 346l-50 130l-39 -135zM315 1014q58 0 94.5 -35t36.5 -96q0 -57 -33 -96.5t-98 -39.5q-139 0 -139 137q0 67 38.5 98.5t100.5 31.5zM315 923q-42 0 -42 -48q0 -20 13.5 -32t28.5 -12q39 0 39 44q0 19 -10 33.5t-29 14.5z" />
<glyph unicode="&#xc6;" horiz-adv-x="965" d="M340 2l-300 -14q-6 13 -9.5 49t-4.5 65v30l66 16l174 366q82 166 103 192q1 3 134 4.5t265 1.5l133 -1q4 -6 7 -19t4 -30t2 -38v-20v-20l-2 -39.5t-2 -34t-2 -24.5v-9q0 -2 -68 -3q-35 -1 -53.5 -0.5t-22.5 0.5q-3 0 -6 18t-4.5 37t-1.5 20q-1 2 -56 3h-32q-25 0 -26 -1 t-1 -27v-31q1 -56 3 -57q1 0 27 -1t51 -2.5t25 -2.5t1 -15.5t2 -34t1.5 -40.5t1 -33.5t-0.5 -14.5q-1 0 -29 -1.5t-55 -3.5t-28 -3q-2 -3 -2 -131q4 -2 31 -1.5t58.5 3t31.5 3.5q0 2 14 53.5t14 52.5h2q6 0 39 -3q40 -4 81 -9t41 -6q0 -5 -9.5 -128.5t-10.5 -124.5 q-1 0 -51.5 -1t-115.5 -2t-137 -2h-29q-57 0 -107 2q-62 2 -89 7q0 138 5 149q5 5 56 5l-2 65l-149 2l-23 -66l48 -9q1 -9 2 -22t3.5 -48.5t2.5 -48.5v-22zM453 346v196l-97 -192z" />
<glyph unicode="&#xc7;" horiz-adv-x="639" d="M446 713l30 -3q29 -2 68.5 -9t58.5 -19q2 -8 2 -42v-24q-1 -56 -4 -120l-3 -63l-161 -20q-1 4 -3 11t-10 25t-19 31.5t-32 24.5t-46 11q-41 0 -68.5 -43t-27.5 -123t38 -119.5t83 -39.5q29 0 57.5 15t42.5 28.5t22 24.5q20 -21 52.5 -52t55.5 -51l23 -21q-2 -5 -7 -14.5 t-24.5 -33.5t-43 -43t-64.5 -36t-89 -20l-2 -39q3 -1 8.5 -3.5t19.5 -11.5t24.5 -19.5t19.5 -29t9 -39.5q0 -15 -5.5 -29t-15 -25t-22 -20t-26.5 -15.5t-27.5 -12t-26.5 -8.5l-23 -6q-9 -3 -15 -4l-6 -1q-1 -1 -9 21.5t-14 45t-4 23.5q1 0 9 1.5t17 4.5t18.5 7t15.5 10.5 t6 14.5q0 16 -17 26.5t-35 12.5l-17 2q2 79 2 106q-101 31 -168 121.5t-67 228.5q0 91 25.5 160t68 108.5t92.5 58.5t105 19q34 0 63.5 -10.5t41.5 -21.5l13 -10z" />
<glyph unicode="&#xc8;" horiz-adv-x="647" d="M59 -3q-1 -1 -1 13q-1 8 -1 17t1 19v44q1 22 2.5 38t3.5 18q5 5 47 5h15l6 387q0 16 -1 16l-67 -6l-13 158q1 3 134 4.5t265 1.5l133 -1q4 -6 7 -19t4 -30t2 -38v-20v-20l-2 -39.5t-2 -34t-2 -24.5v-9q0 -2 -68 -3q-35 -1 -53.5 -0.5t-22.5 0.5q-3 0 -6 18t-4.5 37 t-1.5 20q-1 2 -56 3h-32q-25 0 -26 -1t-1 -27v-31q1 -56 3 -57q1 0 27 -1t51 -2.5t25 -2.5t1 -15.5t2 -34t1.5 -40.5t1 -33.5t-0.5 -14.5q-1 0 -29 -1.5t-55 -3.5t-28 -3q-2 -3 -2 -131q4 -2 31 -1.5t58.5 3t31.5 3.5q0 2 14 53.5t14 52.5h2q6 0 39 -3q40 -4 81 -9t41 -6 q0 -5 -9.5 -128.5t-10.5 -124.5q-1 0 -274 3q-164 2 -230 2q-44 0 -45 -1zM519 882q-38 -124 -52 -124q-6 0 -142 39q-150 43 -150 45q0 5 11 34q12 34 27 69q15 36 19 36q5 0 74 -24l142 -50z" />
<glyph unicode="&#xc9;" horiz-adv-x="647" d="M59 -3q-1 -1 -1 13q-1 8 -1 17t1 19v44q1 22 2.5 38t3.5 18q5 5 47 5h15l6 387q0 16 -1 16l-67 -6l-13 158q1 3 134 4.5t265 1.5l133 -1q4 -6 7 -19t4 -30t2 -38v-20v-20l-2 -39.5t-2 -34t-2 -24.5v-9q0 -2 -68 -3q-35 -1 -53.5 -0.5t-22.5 0.5q-3 0 -6 18t-4.5 37 t-1.5 20q-1 2 -56 3h-32q-25 0 -26 -1t-1 -27v-31q1 -56 3 -57q1 0 27 -1t51 -2.5t25 -2.5t1 -15.5t2 -34t1.5 -40.5t1 -33.5t-0.5 -14.5q-1 0 -29 -1.5t-55 -3.5t-28 -3q-2 -3 -2 -131q4 -2 31 -1.5t58.5 3t31.5 3.5q0 2 14 53.5t14 52.5h2q6 0 39 -3q40 -4 81 -9t41 -6 q0 -5 -9.5 -128.5t-10.5 -124.5q-1 0 -274 3q-164 2 -230 2q-44 0 -45 -1zM156 881l278 112q11 4 12 4q4 -1 20 -37t30 -72q11 -30 11 -35q0 -1 -70 -24l-142.5 -46t-78.5 -23h-1q-7 4 -22 34t-26 58z" />
<glyph unicode="&#xca;" horiz-adv-x="647" d="M59 -3q-1 -1 -1 13q-1 8 -1 17t1 19v44q1 22 2.5 38t3.5 18q5 5 47 5h15l6 387q0 16 -1 16l-67 -6l-13 158q1 3 134 4.5t265 1.5l133 -1q4 -6 7 -19t4 -30t2 -38v-20v-20l-2 -39.5t-2 -34t-2 -24.5v-9q0 -2 -68 -3q-35 -1 -53.5 -0.5t-22.5 0.5q-3 0 -6 18t-4.5 37 t-1.5 20q-1 2 -56 3h-32q-25 0 -26 -1t-1 -27v-31q1 -56 3 -57q1 0 27 -1t51 -2.5t25 -2.5t1 -15.5t2 -34t1.5 -40.5t1 -33.5t-0.5 -14.5q-1 0 -29 -1.5t-55 -3.5t-28 -3q-2 -3 -2 -131q4 -2 31 -1.5t58.5 3t31.5 3.5q0 2 14 53.5t14 52.5h2q6 0 39 -3q40 -4 81 -9t41 -6 q0 -5 -9.5 -128.5t-10.5 -124.5q-1 0 -274 3q-164 2 -230 2q-44 0 -45 -1zM532 880q-69 -103 -85 -111l-116 78l-115 -85q-6 1 -16.5 13t-21.5 29l-21 34l-17 28l-7 11q-1 0 17 15l45 34l55 42l47 34q21 16 23 16q8 0 212 -138z" />
<glyph unicode="&#xcb;" horiz-adv-x="647" d="M59 -3q-1 -1 -1 13q-1 8 -1 17t1 19v44q1 22 2.5 38t3.5 18q5 5 47 5h15l6 387q0 16 -1 16l-67 -6l-13 158q1 3 134 4.5t265 1.5l133 -1q4 -6 7 -19t4 -30t2 -38v-20v-20l-2 -39.5t-2 -34t-2 -24.5v-9q0 -2 -68 -3q-35 -1 -53.5 -0.5t-22.5 0.5q-3 0 -6 18t-4.5 37 t-1.5 20q-1 2 -56 3h-32q-25 0 -26 -1t-1 -27v-31q1 -56 3 -57q1 0 27 -1t51 -2.5t25 -2.5t1 -15.5t2 -34t1.5 -40.5t1 -33.5t-0.5 -14.5q-1 0 -29 -1.5t-55 -3.5t-28 -3q-2 -3 -2 -131q4 -2 31 -1.5t58.5 3t31.5 3.5q0 2 14 53.5t14 52.5h2q6 0 39 -3q40 -4 81 -9t41 -6 q0 -5 -9.5 -128.5t-10.5 -124.5q-1 0 -274 3q-164 2 -230 2q-44 0 -45 -1zM198 963q39 0 69.5 -29t30.5 -66q0 -44 -21.5 -73.5t-66.5 -29.5q-49 0 -76 26q-28 28 -28 75q0 43 26 70q27 27 66 27zM460 963q39 0 69 -29t30 -66q0 -44 -21.5 -73.5t-66.5 -29.5q-49 0 -75 26 q-29 28 -29 75q0 43 27 70t66 27z" />
<glyph unicode="&#xcc;" horiz-adv-x="439" d="M294 547l13 -404q87 0 87 -7q0 -1 0.5 -16t1.5 -34l2 -38v-17.5v-14.5q-1 -13 -2 -14q-8 -3 -170 -4h-28q-135 0 -147 9q-7 12 -7 61v8q1 55 5 59q3 3 47 3h25l-14 414q-17 -1 -29 -1q-30 0 -34 4q-1 5 -1 22v19q1 32 3 68l2 37l329 5l7 -142zM407 882q-38 -124 -52 -124 q-6 0 -142 39q-150 43 -150 45q0 5 11 34q12 34 27 69q15 36 19 36q5 0 74 -24l142 -50z" />
<glyph unicode="&#xcd;" horiz-adv-x="439" d="M294 547l13 -404q87 0 87 -7q0 -1 0.5 -16t1.5 -34l2 -38v-17.5v-14.5q-1 -13 -2 -14q-8 -3 -170 -4h-28q-135 0 -147 9q-7 12 -7 61v8q1 55 5 59q3 3 47 3h25l-14 414q-17 -1 -29 -1q-30 0 -34 4q-1 5 -1 22v19q1 32 3 68l2 37l329 5l7 -142zM44 881l278 112q11 4 12 4 q4 -1 20 -37t30 -72q11 -30 11 -35q0 -1 -70 -24l-142.5 -46t-78.5 -23h-1q-7 4 -22 34t-26 58z" />
<glyph unicode="&#xce;" horiz-adv-x="439" d="M294 547l13 -404q87 0 87 -7q0 -1 0.5 -16t1.5 -34l2 -38v-17.5v-14.5q-1 -13 -2 -14q-8 -3 -170 -4h-28q-135 0 -147 9q-7 12 -7 61v8q1 55 5 59q3 3 47 3h25l-14 414q-17 -1 -29 -1q-30 0 -34 4q-1 5 -1 22v19q1 32 3 68l2 37l329 5l7 -142zM420 880q-69 -103 -85 -111 l-116 78l-115 -85q-6 1 -16.5 13t-21.5 29l-21 34l-17 28l-7 11q-1 0 17 15l45 34l55 42l47 34q21 16 23 16q8 0 212 -138z" />
<glyph unicode="&#xcf;" horiz-adv-x="439" d="M294 547l13 -404q87 0 87 -7q0 -1 0.5 -16t1.5 -34l2 -38v-17.5v-14.5q-1 -13 -2 -14q-8 -3 -170 -4h-28q-135 0 -147 9q-7 12 -7 61v8q1 55 5 59q3 3 47 3h25l-14 414q-17 -1 -29 -1q-30 0 -34 4q-1 5 -1 22v19q1 32 3 68l2 37l329 5l7 -142zM86 963q39 0 69.5 -29 t30.5 -66q0 -44 -21.5 -73.5t-66.5 -29.5q-49 0 -76 26q-28 28 -28 75q0 43 26 70q27 27 66 27zM348 963q39 0 69 -29t30 -66q0 -44 -21.5 -73.5t-66.5 -29.5q-49 0 -75 26q-29 28 -29 75q0 43 27 70t66 27z" />
<glyph unicode="&#xd0;" horiz-adv-x="675" d="M38 386q34 -1 81 -1l4 132q-77 -7 -79 -7q-1 0 -8 41t-12 83q-4 28 -4 39q0 5 1 6q5 3 32.5 9.5t83.5 11.5q41 5 85 5q16 0 32 -1q121 -2 165 -10q176 -32 222 -203q17 -63 17 -147q0 -79 -12.5 -139.5t-37.5 -100t-55 -65.5t-71 -39t-79 -18t-87 -5q-45 0 -113 5 t-114 10q-38 3 -46 3h-2l-1 17q-1 16 -3 39.5t-3.5 49t-2 42t1.5 19.5q3 2 22.5 4.5t38.5 3.5l18 2l4 134q-81 0 -83 1t-2 14q0 9 1 25q3 38 6 40zM298 161q13 -2 26 -2q52 0 87 31q43 38 43 146q0 55 -10.5 93t-26.5 54t-36 25q-16 8 -30 8h-8q-13 -2 -24 -2h-8 q-4 -1 -6 -1q-5 -80 -7 -131q92 -2 92 -3q0 -3 -3.5 -34t-4.5 -33q-1 -1 -86 -3q-1 -38 -1 -68q0 -58 3 -80z" />
<glyph unicode="&#xd1;" horiz-adv-x="717" d="M38 -5q1 1 1 6q0 13 -5 58q-4 52 -4 60q0 2 3 3t31 4q32 5 33 6t1 39.5t-1 113.5q-2 151 -6 236q-11 -1 -36.5 -1t-27.5 2t-8 88q-4 56 -4 76q0 10 1 11t16 1h38q23 0 50 -0.5t49 -0.5t38 -1h16q1 0 122.5 -174t123.5 -175q1 5 1 27v26q-1 47 -3 101l-2 54q-81 5 -82 5 t-5 35.5t-6 66.5q-1 12 -1 21q0 12 2 16q6 2 163 3h86q70 0 70 -1l1 -15q1 -15 1.5 -34.5t1.5 -39.5q1 -13 1 -24q0 -5 -1 -10q0 -13 -2 -13q-6 0 -37 -3.5t-31 -4.5l2 -59q1 -60 3 -140.5t3.5 -167t1.5 -138.5q1 -18 1 -30q0 -25 -1 -29q-1 0 -26 -2t-52 -3.5t-52 -1.5 q-5 -1 -9 -1q-16 0 -17 2l-212 356q0 -195 5 -201q2 -2 19.5 -4.5t34 -4.5t16.5 -5q0 -1 3.5 -33.5t5.5 -56.5q1 -9 1 -16q0 -10 -2 -15q-1 -1 -19.5 -2.5t-46.5 -2.5t-61 -2l-66 -4q-33 -1 -60 -1.5t-44 -0.5t-16 1zM132 798q0 3 -0.5 8t-0.5 6q0 8 1 22q2 18 6.5 35t15 38 t26 36t41.5 25t60 10q31 0 61.5 -16t51.5 -32.5t31 -16.5q23 1 33 48q99 -8 123 -24q0 -4 -0.5 -10t-3.5 -24t-8 -34.5t-16 -36.5t-25 -34.5t-36.5 -24.5t-50.5 -10q-25 0 -49 10.5t-39 23t-32 23t-30 10.5q-11 0 -17 -11t-9 -25t-5 -16q-1 -1 -5 -1q-21 0 -123 21z" />
<glyph unicode="&#xd2;" horiz-adv-x="727" d="M373 717q145 0 235 -96.5t90 -265.5q0 -73 -19.5 -138.5t-57.5 -119t-101.5 -84.5t-145.5 -31q-159 0 -251.5 92t-92.5 283q0 96 26.5 167.5t75 112.5t108.5 60.5t133 19.5zM371 531q-134 0 -134 -184q0 -81 40.5 -123t94.5 -42q52 0 84.5 39.5t32.5 126.5q0 83 -29 133 t-89 50zM566 882q-38 -124 -52 -124q-6 0 -142 39q-150 43 -150 45q0 5 10 34q13 34 28 69q15 36 19 36q5 0 74 -24l143 -50z" />
<glyph unicode="&#xd3;" horiz-adv-x="727" d="M373 717q145 0 235 -96.5t90 -265.5q0 -73 -19.5 -138.5t-57.5 -119t-101.5 -84.5t-145.5 -31q-159 0 -251.5 92t-92.5 283q0 96 26.5 167.5t75 112.5t108.5 60.5t133 19.5zM371 531q-134 0 -134 -184q0 -81 40.5 -123t94.5 -42q52 0 84.5 39.5t32.5 126.5q0 83 -29 133 t-89 50zM203 881l278 112q11 4 12 4q4 -1 20 -37t29 -72q12 -30 12 -35q0 -1 -70 -24l-142.5 -46t-78.5 -23h-1q-7 4 -22 34t-26 58z" />
<glyph unicode="&#xd4;" horiz-adv-x="727" d="M373 717q145 0 235 -96.5t90 -265.5q0 -73 -19.5 -138.5t-57.5 -119t-101.5 -84.5t-145.5 -31q-159 0 -251.5 92t-92.5 283q0 96 26.5 167.5t75 112.5t108.5 60.5t133 19.5zM371 531q-134 0 -134 -184q0 -81 40.5 -123t94.5 -42q52 0 84.5 39.5t32.5 126.5q0 83 -29 133 t-89 50zM579 880q-69 -103 -85 -111l-116 78l-115 -85q-6 1 -16.5 13t-21.5 29l-21 34l-17 28l-7 11q-1 0 17 15l45 34l54 42l48 34q21 16 23 16q8 0 212 -138z" />
<glyph unicode="&#xd5;" horiz-adv-x="727" d="M373 717q145 0 235 -96.5t90 -265.5q0 -73 -19.5 -138.5t-57.5 -119t-101.5 -84.5t-145.5 -31q-159 0 -251.5 92t-92.5 283q0 96 26.5 167.5t75 112.5t108.5 60.5t133 19.5zM371 531q-134 0 -134 -184q0 -81 40.5 -123t94.5 -42q52 0 84.5 39.5t32.5 126.5q0 83 -29 133 t-89 50zM155 798q0 3 -0.5 8t-0.5 6q0 8 2 22q1 18 5.5 35t15 38t26 36t41.5 25t60 10q31 0 61.5 -16t51.5 -32.5t31 -16.5q23 1 33 48q99 -8 123 -24q0 -4 -0.5 -10t-3.5 -24t-8 -34.5t-16 -36.5t-25 -34.5t-36.5 -24.5t-50.5 -10q-25 0 -49 10.5t-39 23t-32 23t-30 10.5 q-11 0 -17 -11t-9 -25t-5 -16q-1 -1 -5 -1q-21 0 -123 21z" />
<glyph unicode="&#xd6;" horiz-adv-x="727" d="M373 717q145 0 235 -96.5t90 -265.5q0 -73 -19.5 -138.5t-57.5 -119t-101.5 -84.5t-145.5 -31q-159 0 -251.5 92t-92.5 283q0 96 26.5 167.5t75 112.5t108.5 60.5t133 19.5zM371 531q-134 0 -134 -184q0 -81 40.5 -123t94.5 -42q52 0 84.5 39.5t32.5 126.5q0 83 -29 133 t-89 50zM245 963q39 0 69.5 -29t30.5 -66q0 -44 -21.5 -73.5t-66.5 -29.5q-49 0 -75 26q-29 28 -29 75q0 43 26 70q27 27 66 27zM507 963q39 0 69 -29t30 -66q0 -44 -21.5 -73.5t-66.5 -29.5q-49 0 -76 26q-28 28 -28 75q0 43 26 70q28 27 67 27z" />
<glyph unicode="&#xd7;" horiz-adv-x="622" d="M152 592l160 -156l164 164l70 -85l-150 -150l156 -156q-62 -63 -69 -63q-4 0 -81.5 63.5t-79.5 64.5q-3 1 -85.5 -78t-84.5 -79q-5 0 -42 34q-33 31 -33 40q0 1 41 49l77 87q37 43 37 45q0 1 -72 68.5t-72 71.5q0 3 15.5 23.5t31.5 39t17 17.5z" />
<glyph unicode="&#xd8;" horiz-adv-x="727" d="M373 717q79 0 144 -30l31 52h3q7 0 24 -7q20 -10 36.5 -20.5t16.5 -11.5l-37 -64q107 -97 107 -281q0 -73 -19.5 -138.5t-57.5 -119t-101.5 -84.5t-145.5 -31q-80 0 -146 24l-37 -65l-55 21q-15 7 -14 11q0 2 37 69q-129 92 -129 315q0 96 26.5 167.5t75 112.5 t108.5 60.5t133 19.5zM371 531q-134 0 -134 -184q0 -67 29 -109l156 280q-24 13 -51 13zM489 348q0 49 -11 91l-145 -251q19 -6 39 -6q52 0 84.5 39.5t32.5 126.5z" />
<glyph unicode="&#xd9;" horiz-adv-x="735" d="M19 692h5q14 0 73 2l159 6q60 2 75 2h5q1 -4 4 -74q2 -36 2 -54.5t-2 -20.5l-54 -8q3 -260 3 -281q0 -34 21 -57t64 -23q42 0 63 20.5t21 55.5l-1 290h-59l-2 149q17 6 92 7h73.5h68.5l66 -2q6 -138 6 -140l-58 -17q1 -249 1 -293q0 -126 -70 -196.5t-202 -70.5 q-129 0 -201 73.5t-72 204.5l-2 279l-73 11zM564 882q-38 -124 -52 -124q-6 0 -142 39q-150 43 -150 45q0 5 10 34q13 34 28 69q15 36 19 36q5 0 74 -24l143 -50z" />
<glyph unicode="&#xda;" horiz-adv-x="735" d="M19 692h5q14 0 73 2l159 6q60 2 75 2h5q1 -4 4 -74q2 -36 2 -54.5t-2 -20.5l-54 -8q3 -260 3 -281q0 -34 21 -57t64 -23q42 0 63 20.5t21 55.5l-1 290h-59l-2 149q17 6 92 7h73.5h68.5l66 -2q6 -138 6 -140l-58 -17q1 -249 1 -293q0 -126 -70 -196.5t-202 -70.5 q-129 0 -201 73.5t-72 204.5l-2 279l-73 11zM201 881l278 112q11 4 12 4q4 -1 20 -37t29 -72q12 -30 12 -35q0 -1 -70 -24l-142.5 -46t-78.5 -23h-1q-7 4 -22 34t-26 58z" />
<glyph unicode="&#xdb;" horiz-adv-x="735" d="M19 692h5q14 0 73 2l159 6q60 2 75 2h5q1 -4 4 -74q2 -36 2 -54.5t-2 -20.5l-54 -8q3 -260 3 -281q0 -34 21 -57t64 -23q42 0 63 20.5t21 55.5l-1 290h-59l-2 149q17 6 92 7h73.5h68.5l66 -2q6 -138 6 -140l-58 -17q1 -249 1 -293q0 -126 -70 -196.5t-202 -70.5 q-129 0 -201 73.5t-72 204.5l-2 279l-73 11zM577 880q-69 -103 -85 -111l-116 78l-115 -85q-6 1 -16.5 13t-21.5 29l-21 34l-17 28l-7 11q-1 0 17 15l45 34l54 42l48 34q21 16 23 16q8 0 212 -138z" />
<glyph unicode="&#xdc;" horiz-adv-x="735" d="M19 692h5q14 0 73 2l159 6q60 2 75 2h5q1 -4 4 -74q2 -36 2 -54.5t-2 -20.5l-54 -8q3 -260 3 -281q0 -34 21 -57t64 -23q42 0 63 20.5t21 55.5l-1 290h-59l-2 149q17 6 92 7h73.5h68.5l66 -2q6 -138 6 -140l-58 -17q1 -249 1 -293q0 -126 -70 -196.5t-202 -70.5 q-129 0 -201 73.5t-72 204.5l-2 279l-73 11zM505 963q39 0 69 -29t30 -66q0 -44 -21.5 -73.5t-66.5 -29.5q-49 0 -76 26q-28 28 -28 75q0 43 26 70q28 27 67 27zM243 963q39 0 69.5 -29t30.5 -66q0 -44 -21.5 -73.5t-66.5 -29.5q-49 0 -75 26q-29 28 -29 75q0 43 26 70 q27 27 66 27z" />
<glyph unicode="&#xdd;" horiz-adv-x="702" d="M37 701l294 -5l11 -137q-1 -2 -48 -2l17 -19l35 -40l17 -20q4 5 11.5 13.5t21.5 26.5l24 30q10 13 9 14t-40 1q-2 1 -2 39v30q1 69 2 70h11q28 0 124 -2q134 -2 139 -4t9 -68q4 -46 4 -61q0 -6 -1 -7q-3 -3 -61 -3l-169 -226q3 -177 3 -187q0 -4 14 -5t29.5 -1t17.5 -2 q3 -4 3 -134q0 -3 -155 -6q-121 -3 -149 -3h-8q-2 1 -3 69q0 34 -0.5 51t0.5 18q1 0 18 2t33.5 4.5t16.5 3.5v193q0 2 -37 53l-76 100q-37 48 -39 48q-9 0 -20 1l-38 6q-19 2 -19 3v17q1 16 1 38.5t0.5 45.5t0.5 39t-1 16zM180 881l278 112q11 4 12 4q4 -1 20 -37t30 -72 q11 -30 11 -35q0 -1 -70 -24l-142.5 -46t-78.5 -23h-1q-7 4 -22 34t-26 58z" />
<glyph unicode="&#xde;" horiz-adv-x="603" d="M42 0q-1 0 -3 34q-2 28 -2 56q0 7 1 14q0 36 5 39t22.5 4t32.5 1h15q-9 388 -12 389l-68 -2l-6 141q0 22 2 23q8 2 51 5q28 2 66 2h40q65 -2 99 -13q5 -24 5 -97q47 0 85 -5t76.5 -19t64.5 -38t42 -66q15 -39 15 -90v-6q-1 -59 -21 -104.5t-49.5 -71.5t-69 -42.5t-73 -22 t-66.5 -5.5q0 -2 2 -46q2 -31 2 -58v-20q0 -4 -64 -4q-21 -1 -43 -1l-85 1zM295 302q0 -2 7 -2q6 0 17 2q24 2 48 19t24 51q0 56 -78 56l-22 -2z" />
<glyph unicode="&#xdf;" horiz-adv-x="666" d="M31 28q-3 32 -5 66q-2 24 -2 32v4q1 2 14.5 6t25.5 8l13 3v2q-9 162 -9 260q0 86 7 122q6 34 23 66t47 62.5t81.5 49t117.5 18.5q124 0 195 -64t71 -162q0 -31 -10.5 -57.5t-23.5 -40.5t-23.5 -29.5t-10.5 -27.5t15 -27.5t33 -30.5t33 -46t15 -69q0 -36 -24 -72 t-58 -61.5t-68.5 -45.5t-58.5 -30l-24 -10q-55 90 -71 157q3 1 8 3t17 8t21.5 13.5t17.5 19.5t8 25q0 18 -18.5 42t-37 53.5t-18.5 62.5t17.5 63.5t35 55.5t17.5 42q0 22 -18 36.5t-44 14.5q-27 0 -49 -21.5t-22 -47.5q0 -3 0.5 -54t0.5 -119l2 -136v-116t-1 -49 q-1 -2 -61 -3l-119 -4q-58 -1 -58 -3q0 9 -2 31z" />
<glyph unicode="&#xe0;" d="M246 504q80 0 146 -48l2 -2v50q53 2 106 3h35l71 -1q0 -2 1.5 -35.5t2.5 -65.5l2 -32q-2 0 -37.5 -8t-36.5 -9l2 -211q83 0 84 -6q2 -4 2 -48v-25q-1 -67 -4 -67q-17 0 -122 2.5t-105 4.5l-10 51l-5 -7q-3 -5 -15.5 -16t-27.5 -20t-40 -16t-54 -7q-38 0 -74 13.5 t-70.5 42t-55.5 83.5t-21 128q0 68 20 118t54 76.5t71.5 39t78.5 12.5zM282 350q-38 0 -60.5 -25t-22.5 -70q0 -42 24 -68.5t55 -26.5q34 0 56 25.5t22 67.5q0 40 -21.5 68.5t-52.5 28.5zM521 703q-38 -124 -52 -124q-6 0 -142 39q-150 43 -150 45q0 5 11 34q12 34 27 69 q15 36 19 36q5 0 74 -24l142 -50z" />
<glyph unicode="&#xe1;" d="M246 504q80 0 146 -48l2 -2v50q53 2 106 3h35l71 -1q0 -2 1.5 -35.5t2.5 -65.5l2 -32q-2 0 -37.5 -8t-36.5 -9l2 -211q83 0 84 -6q2 -4 2 -48v-25q-1 -67 -4 -67q-17 0 -122 2.5t-105 4.5l-10 51l-5 -7q-3 -5 -15.5 -16t-27.5 -20t-40 -16t-54 -7q-38 0 -74 13.5 t-70.5 42t-55.5 83.5t-21 128q0 68 20 118t54 76.5t71.5 39t78.5 12.5zM282 350q-38 0 -60.5 -25t-22.5 -70q0 -42 24 -68.5t55 -26.5q34 0 56 25.5t22 67.5q0 40 -21.5 68.5t-52.5 28.5zM170 691l278 112q11 4 12 4q4 -1 20 -37t30 -72q11 -30 11 -35q0 -1 -70 -24 l-142.5 -46t-78.5 -23h-1q-7 4 -22 34t-26 58z" />
<glyph unicode="&#xe2;" d="M246 504q80 0 146 -48l2 -2v50q53 2 106 3h35l71 -1q0 -2 1.5 -35.5t2.5 -65.5l2 -32q-2 0 -37.5 -8t-36.5 -9l2 -211q83 0 84 -6q2 -4 2 -48v-25q-1 -67 -4 -67q-17 0 -122 2.5t-105 4.5l-10 51l-5 -7q-3 -5 -15.5 -16t-27.5 -20t-40 -16t-54 -7q-38 0 -74 13.5 t-70.5 42t-55.5 83.5t-21 128q0 68 20 118t54 76.5t71.5 39t78.5 12.5zM282 350q-38 0 -60.5 -25t-22.5 -70q0 -42 24 -68.5t55 -26.5q34 0 56 25.5t22 67.5q0 40 -21.5 68.5t-52.5 28.5zM546 684q-69 -103 -85 -111l-116 78l-115 -85q-6 1 -16.5 13t-21.5 29l-21 34l-17 28 l-7 11q-1 0 17 15l45 34l55 42l47 34q21 16 23 16q8 0 212 -138z" />
<glyph unicode="&#xe3;" d="M246 504q80 0 146 -48l2 -2v50q53 2 106 3h35l71 -1q0 -2 1.5 -35.5t2.5 -65.5l2 -32q-2 0 -37.5 -8t-36.5 -9l2 -211q83 0 84 -6q2 -4 2 -48v-25q-1 -67 -4 -67q-17 0 -122 2.5t-105 4.5l-10 51l-5 -7q-3 -5 -15.5 -16t-27.5 -20t-40 -16t-54 -7q-38 0 -74 13.5 t-70.5 42t-55.5 83.5t-21 128q0 68 20 118t54 76.5t71.5 39t78.5 12.5zM282 350q-38 0 -60.5 -25t-22.5 -70q0 -42 24 -68.5t55 -26.5q34 0 56 25.5t22 67.5q0 40 -21.5 68.5t-52.5 28.5zM122 598q0 3 -0.5 8t-0.5 6q0 8 1 22q2 18 6.5 35t15 38t26 36t41.5 25t60 10 q31 0 61.5 -16t51.5 -32.5t31 -16.5q23 1 33 48q99 -8 123 -24q0 -4 -0.5 -10t-3.5 -24t-8 -34.5t-16 -36.5t-25 -34.5t-36.5 -24.5t-50.5 -10q-25 0 -49 10.5t-39 23t-32 23t-30 10.5q-11 0 -17 -11t-9 -25t-5 -16q-1 -1 -5 -1q-21 0 -123 21z" />
<glyph unicode="&#xe4;" d="M246 504q80 0 146 -48l2 -2v50q53 2 106 3h35l71 -1q0 -2 1.5 -35.5t2.5 -65.5l2 -32q-2 0 -37.5 -8t-36.5 -9l2 -211q83 0 84 -6q2 -4 2 -48v-25q-1 -67 -4 -67q-17 0 -122 2.5t-105 4.5l-10 51l-5 -7q-3 -5 -15.5 -16t-27.5 -20t-40 -16t-54 -7q-38 0 -74 13.5 t-70.5 42t-55.5 83.5t-21 128q0 68 20 118t54 76.5t71.5 39t78.5 12.5zM282 350q-38 0 -60.5 -25t-22.5 -70q0 -42 24 -68.5t55 -26.5q34 0 56 25.5t22 67.5q0 40 -21.5 68.5t-52.5 28.5zM212 764q39 0 69.5 -29t30.5 -66q0 -44 -21.5 -73.5t-66.5 -29.5q-49 0 -76 26 q-28 28 -28 75q0 43 26 69q27 28 66 28zM474 764q39 0 69 -29t30 -66q0 -44 -21.5 -73.5t-66.5 -29.5q-49 0 -75 26q-29 28 -29 75q0 43 27 69q27 28 66 28z" />
<glyph unicode="&#xe5;" d="M246 504q80 0 146 -48l2 -2v50q53 2 106 3h35l71 -1q0 -2 1.5 -35.5t2.5 -65.5l2 -32q-2 0 -37.5 -8t-36.5 -9l2 -211q83 0 84 -6q2 -4 2 -48v-25q-1 -67 -4 -67q-17 0 -122 2.5t-105 4.5l-10 51l-5 -7q-3 -5 -15.5 -16t-27.5 -20t-40 -16t-54 -7q-38 0 -74 13.5 t-70.5 42t-55.5 83.5t-21 128q0 68 20 118t54 76.5t71.5 39t78.5 12.5zM282 350q-38 0 -60.5 -25t-22.5 -70q0 -42 24 -68.5t55 -26.5q34 0 56 25.5t22 67.5q0 40 -21.5 68.5t-52.5 28.5zM350 824q58 0 94.5 -35t36.5 -96q0 -57 -33 -96.5t-98 -39.5q-139 0 -139 137 q0 67 38.5 98.5t100.5 31.5zM350 733q-42 0 -42 -48q0 -20 13.5 -32t28.5 -12q39 0 39 44q0 19 -10 33.5t-29 14.5z" />
<glyph unicode="&#xe6;" horiz-adv-x="823" d="M97 337q-10 22 -22 55.5t-19 55.5l-6 23q7 5 20 13t59 21.5t98 13.5q55 0 102.5 -20t68.5 -48q65 71 179 71q82 0 149.5 -53.5t70.5 -92.5l-27 -102l-193 -106q15 -18 177 -18q-1 -29 -6.5 -69.5t-10.5 -66.5l-5 -25q-30 -2 -58 -2q-162 0 -253 75q-12 -11 -38 -26 t-78 -32t-103 -17q-92 0 -137.5 43.5t-45.5 116.5q0 54 26 91.5t69 53.5t86 22q25 3 50 3q19 0 38 -2q2 19 -15.5 33.5t-53.5 14.5q-25 0 -55.5 -6.5t-48.5 -12.5zM305 155q2 18 2 32.5t-2 26.5q-40 0 -72 -16q-28 -15 -28 -39v-6q4 -23 35 -23h4q34 2 61 25zM579 386 q-49 0 -71 -34q-14 -20 -14 -40q0 -13 6 -27l122 75q-3 9 -16 17.5t-27 8.5z" />
<glyph unicode="&#xe7;" horiz-adv-x="555" d="M382 538h10q10 -1 26 -3t33.5 -4.5t36 -8.5t30.5 -14q2 -7 2 -34v-20q-1 -45 -4 -96l-2 -52l-161 -22q0 3 -1 8t-5.5 17.5t-11 22t-19 17t-28.5 6.5q-29 -1 -50 -25t-21 -71q0 -44 25.5 -67.5t55.5 -23.5q8 0 16.5 1.5t14.5 3.5t12 5.5t10 6.5t8.5 7t6.5 6t5 6l3 4 q18 -4 53.5 -31.5t62.5 -52.5l27 -26q-2 -4 -6.5 -11t-20.5 -24.5t-35.5 -31.5t-53.5 -27t-73 -16l-2 -39q3 -1 8.5 -3.5t19.5 -11.5t24.5 -19.5t19.5 -29t9 -39.5q0 -15 -5.5 -29t-15 -25t-22 -20t-26.5 -15.5t-27.5 -12t-26.5 -8.5l-22 -6q-10 -3 -16 -4l-6 -1 q-1 -1 -9 21.5t-14 45t-4 23.5q1 0 9 1.5t17 4.5t18.5 7t15.5 10.5t6 14.5q0 16 -17.5 26.5t-34.5 12.5l-17 2q2 77 2 106q-85 23 -135.5 90t-50.5 169q0 67 21.5 118.5t57 81t76 44.5t82.5 15q34 0 61.5 -8t37.5 -16l11 -7z" />
<glyph unicode="&#xe8;" horiz-adv-x="519" d="M273 522q82 0 149.5 -53.5t70.5 -92.5l-27 -102l-193 -106q15 -18 177 -18q-1 -29 -6.5 -69.5t-10.5 -66.5l-5 -25q-29 -2 -56 -2q-150 0 -244 65q-111 77 -111 215q0 128 73 191.5t183 63.5zM275 386q-49 0 -71 -34q-14 -20 -14 -40q0 -13 6 -27l122 75q-3 9 -16 17.5 t-27 8.5zM434 703q-38 -124 -52 -124q-6 0 -142 39q-150 43 -150 45q0 5 10 34q13 34 28 69q15 36 19 36q5 0 74 -24l143 -50z" />
<glyph unicode="&#xe9;" horiz-adv-x="519" d="M273 522q82 0 149.5 -53.5t70.5 -92.5l-27 -102l-193 -106q15 -18 177 -18q-1 -29 -6.5 -69.5t-10.5 -66.5l-5 -25q-29 -2 -56 -2q-150 0 -244 65q-111 77 -111 215q0 128 73 191.5t183 63.5zM275 386q-49 0 -71 -34q-14 -20 -14 -40q0 -13 6 -27l122 75q-3 9 -16 17.5 t-27 8.5zM83 691l278 112q11 4 12 4q4 -1 20 -37t29 -72q12 -30 12 -35q0 -1 -70 -24l-142.5 -46t-78.5 -23h-1q-7 4 -22 34t-26 58z" />
<glyph unicode="&#xea;" horiz-adv-x="519" d="M273 522q82 0 149.5 -53.5t70.5 -92.5l-27 -102l-193 -106q15 -18 177 -18q-1 -29 -6.5 -69.5t-10.5 -66.5l-5 -25q-29 -2 -56 -2q-150 0 -244 65q-111 77 -111 215q0 128 73 191.5t183 63.5zM275 386q-49 0 -71 -34q-14 -20 -14 -40q0 -13 6 -27l122 75q-3 9 -16 17.5 t-27 8.5zM459 684q-69 -103 -85 -111l-116 78l-115 -85q-6 1 -16.5 13t-21.5 29l-21 34l-17 28l-7 11q-1 0 17 15l45 34l54 42l48 34q21 16 23 16q8 0 212 -138z" />
<glyph unicode="&#xeb;" horiz-adv-x="519" d="M273 522q82 0 149.5 -53.5t70.5 -92.5l-27 -102l-193 -106q15 -18 177 -18q-1 -29 -6.5 -69.5t-10.5 -66.5l-5 -25q-29 -2 -56 -2q-150 0 -244 65q-111 77 -111 215q0 128 73 191.5t183 63.5zM275 386q-49 0 -71 -34q-14 -20 -14 -40q0 -13 6 -27l122 75q-3 9 -16 17.5 t-27 8.5zM125 764q39 0 69.5 -29t30.5 -66q0 -44 -21.5 -73.5t-66.5 -29.5q-49 0 -75 26q-29 28 -29 75q0 43 26 69q27 28 66 28zM387 764q39 0 69 -29t30 -66q0 -44 -21.5 -73.5t-66.5 -29.5q-49 0 -76 26q-28 28 -28 75q0 43 26 69q28 28 67 28z" />
<glyph unicode="&#xec;" horiz-adv-x="426" d="M309 487v-352l82 -13l2 -120q-1 -1 -20.5 -1.5t-50.5 -1t-68 -0.5h-74q-37 0 -66.5 0.5t-49 0.5t-18.5 0q-1 7 -2 19.5t-3 46.5t-2 62l86 4l1 223q0 1 -13 1l-27 -2q-14 0 -27 -1l-13 -1q-1 0 -8.5 66t-7.5 70q0 3 55 6q39 1 86 1h38q69 -1 100 -8zM386 703 q-38 -124 -52 -124q-6 0 -142 39q-150 43 -150 45q0 5 10 34q13 34 28 69q15 36 19 36q5 0 74 -24l143 -50z" />
<glyph unicode="&#xed;" horiz-adv-x="426" d="M309 487v-352l82 -13l2 -120q-1 -1 -20.5 -1.5t-50.5 -1t-68 -0.5h-74q-37 0 -66.5 0.5t-49 0.5t-18.5 0q-1 7 -2 19.5t-3 46.5t-2 62l86 4l1 223q0 1 -13 1l-27 -2q-14 0 -27 -1l-13 -1q-1 0 -8.5 66t-7.5 70q0 3 55 6q39 1 86 1h38q69 -1 100 -8zM35 691l278 112 q11 4 12 4q4 -1 20 -37t29 -72q12 -30 12 -35q0 -1 -70 -24l-142.5 -46t-78.5 -23h-1q-7 4 -22 34t-26 58z" />
<glyph unicode="&#xee;" horiz-adv-x="426" d="M309 487v-352l82 -13l2 -120q-1 -1 -20.5 -1.5t-50.5 -1t-68 -0.5h-74q-37 0 -66.5 0.5t-49 0.5t-18.5 0q-1 7 -2 19.5t-3 46.5t-2 62l86 4l1 223q0 1 -13 1l-27 -2q-14 0 -27 -1l-13 -1q-1 0 -8.5 66t-7.5 70q0 3 55 6q39 1 86 1h38q69 -1 100 -8zM411 684 q-69 -103 -85 -111l-116 78l-115 -85q-6 1 -16.5 13t-21.5 29l-21 34l-17 28l-7 11q-1 0 17 15l45 34l54 42l48 34q21 16 23 16q8 0 212 -138z" />
<glyph unicode="&#xef;" horiz-adv-x="426" d="M309 487v-352l82 -13l2 -120q-1 -1 -20.5 -1.5t-50.5 -1t-68 -0.5h-74q-37 0 -66.5 0.5t-49 0.5t-18.5 0q-1 7 -2 19.5t-3 46.5t-2 62l86 4l1 223q0 1 -13 1l-27 -2q-14 0 -27 -1l-13 -1q-1 0 -8.5 66t-7.5 70q0 3 55 6q39 1 86 1h38q69 -1 100 -8zM77 764q39 0 69.5 -29 t30.5 -66q0 -44 -21.5 -73.5t-66.5 -29.5q-49 0 -75 26q-29 28 -29 75q0 43 26 69q27 28 66 28zM339 764q39 0 69 -29t30 -66q0 -44 -21.5 -73.5t-66.5 -29.5q-49 0 -76 26q-28 28 -28 75q0 43 26 69q28 28 67 28z" />
<glyph unicode="&#xf0;" horiz-adv-x="531" d="M69 554l66 38l-17 12l-12 10l-4 3q4 8 11.5 18t16.5 19l19 18q10 10 20 18.5t20 15.5l18 14l14 12l9 6l4 2q27 -21 64 -56q109 61 110 60l37 -81q0 -3 -81 -51q143 -167 143 -327q0 -75 -23 -134t-60.5 -93t-81 -51.5t-90.5 -17.5q-95 0 -159 58.5t-64 167.5 q0 54 20.5 99t54.5 74t71.5 47t78.5 27q-11 28 -40 60q-96 -57 -100 -57q-3 -1 -14.5 20.5t-21.5 44t-9 24.5zM307 308q-36 0 -72 -24t-36 -67q0 -23 14 -36t30 -13q36 0 57 27q19 25 19 54q0 32 -12 59z" />
<glyph unicode="&#xf1;" d="M593 269l-1 -131l42 -9q3 -49 3.5 -81.5t-3.5 -48.5l-259 3l-5 127l49 9l-1 107q0 101 -76 101q-30 0 -52.5 -28.5t-22.5 -72.5l1 -110l60 -13l2 -120q-1 -1 -17.5 -1.5t-42 -1t-55.5 -0.5h-61q-31 0 -55.5 0.5t-40.5 0.5t-15 0q-1 7 -2 19.5t-3 46.5t-2 62l66 4l1 239 q-4 1 -16 0t-28 -2l-16 -1q-1 0 -8.5 68t-7.5 72q0 5 198 26l32 -72q5 7 15 17.5t44 28t72 17.5q205 0 205 -256zM108 598q0 3 -0.5 8t-0.5 6q0 8 1 22q2 18 6.5 35t15 38t26 36t41.5 25t60 10q31 0 61.5 -16t51.5 -32.5t31 -16.5q23 1 33 48q99 -8 123 -24q0 -4 -0.5 -10 t-3.5 -24t-8 -34.5t-16 -36.5t-25 -34.5t-36.5 -24.5t-50.5 -10q-25 0 -49 10.5t-39 23t-32 23t-30 10.5q-11 0 -17 -11t-9 -25t-5 -16q-1 -1 -5 -1q-21 0 -123 21z" />
<glyph unicode="&#xf2;" horiz-adv-x="549" d="M279 513q109 0 177 -70t68 -193q0 -113 -62 -191.5t-182 -78.5t-190 66.5t-70 205.5q0 136 71.5 198.5t187.5 62.5zM283 348q-42 0 -61.5 -29t-19.5 -74q0 -42 25.5 -68t55.5 -26q31 0 50 24t19 70q0 43 -17.5 73t-51.5 30zM458 703q-38 -124 -52 -124q-6 0 -142 39 q-150 43 -150 45q0 5 10 34q13 34 28 69q15 36 19 36q5 0 74 -24l143 -50z" />
<glyph unicode="&#xf3;" horiz-adv-x="549" d="M279 513q109 0 177 -70t68 -193q0 -113 -62 -191.5t-182 -78.5t-190 66.5t-70 205.5q0 136 71.5 198.5t187.5 62.5zM283 348q-42 0 -61.5 -29t-19.5 -74q0 -42 25.5 -68t55.5 -26q31 0 50 24t19 70q0 43 -17.5 73t-51.5 30zM107 691l278 112q11 4 12 4q4 -1 20 -37 t29 -72q12 -30 12 -35q0 -1 -70 -24l-142.5 -46t-78.5 -23h-1q-7 4 -22 34t-26 58z" />
<glyph unicode="&#xf4;" horiz-adv-x="549" d="M279 513q109 0 177 -70t68 -193q0 -113 -62 -191.5t-182 -78.5t-190 66.5t-70 205.5q0 136 71.5 198.5t187.5 62.5zM283 348q-42 0 -61.5 -29t-19.5 -74q0 -42 25.5 -68t55.5 -26q31 0 50 24t19 70q0 43 -17.5 73t-51.5 30zM483 684q-69 -103 -85 -111l-116 78l-115 -85 q-6 1 -16.5 13t-21.5 29l-21 34l-17 28l-7 11q-1 0 17 15l45 34l54 42l48 34q21 16 23 16q8 0 212 -138z" />
<glyph unicode="&#xf5;" horiz-adv-x="549" d="M279 513q109 0 177 -70t68 -193q0 -113 -62 -191.5t-182 -78.5t-190 66.5t-70 205.5q0 136 71.5 198.5t187.5 62.5zM283 348q-42 0 -61.5 -29t-19.5 -74q0 -42 25.5 -68t55.5 -26q31 0 50 24t19 70q0 43 -17.5 73t-51.5 30zM59 598q0 3 -0.5 8t-0.5 6q0 8 2 22 q1 18 5.5 35t15 38t26 36t41.5 25t60 10q31 0 61.5 -16t51.5 -32.5t31 -16.5q23 1 33 48q99 -8 123 -24q0 -4 -0.5 -10t-3.5 -24t-8 -34.5t-16 -36.5t-25 -34.5t-36.5 -24.5t-50.5 -10q-25 0 -49 10.5t-39 23t-32 23t-30 10.5q-11 0 -17 -11t-9 -25t-5 -16q-1 -1 -5 -1 q-21 0 -123 21z" />
<glyph unicode="&#xf6;" horiz-adv-x="549" d="M279 513q109 0 177 -70t68 -193q0 -113 -62 -191.5t-182 -78.5t-190 66.5t-70 205.5q0 136 71.5 198.5t187.5 62.5zM283 348q-42 0 -61.5 -29t-19.5 -74q0 -42 25.5 -68t55.5 -26q31 0 50 24t19 70q0 43 -17.5 73t-51.5 30zM149 764q39 0 69.5 -29t30.5 -66 q0 -44 -21.5 -73.5t-66.5 -29.5q-49 0 -75 26q-29 28 -29 75q0 43 26 69q27 28 66 28zM411 764q39 0 69 -29t30 -66q0 -44 -21.5 -73.5t-66.5 -29.5q-49 0 -76 26q-28 28 -28 75q0 43 26 69q28 28 67 28z" />
<glyph unicode="&#xf7;" horiz-adv-x="549" d="M498 415q5 0 11 -46q4 -28 4 -39q0 -8 -2 -9q-27 -13 -217 -16q-47 -1 -86 -1q-118 0 -165 7q-3 0 -6.5 25.5t-5 51t-0.5 25.5zM271 674q39 0 69.5 -29t30.5 -66q0 -44 -21.5 -73.5t-66.5 -29.5q-49 0 -75 26q-29 28 -29 75q0 43 26 69q27 28 66 28zM182 143 q0 40 25.5 70t62.5 30q44 0 74 -21.5t30 -66.5q0 -99 -96 -102h-3q-42 0 -67 25q-26 25 -26 65z" />
<glyph unicode="&#xf8;" horiz-adv-x="549" d="M410 554h1q5 0 19 -7q16 -8 30 -17l14 -8l-36 -63q86 -71 86 -209q0 -113 -62 -191.5t-182 -78.5q-60 0 -109 17l-37 -64l-48 21q-8 5 -8 7q0 3 35 66q-93 67 -93 225q0 136 71.5 198.5t187.5 62.5q51 0 96 -17q31 54 35 58zM358 249q0 31 -10 63l-100 -173q12 -3 26 -3 q37 0 60.5 29t23.5 84zM287 354q-52 0 -75.5 -35.5t-23.5 -88.5q0 -24 10 -52l98 175q-3 1 -9 1z" />
<glyph unicode="&#xf9;" d="M70 243l1 114l-42 4q-2 11 -4 27.5t-6 57.5q-2 18 -2 30q0 15 3 19l229 16q0 -67 1 -241q0 -101 71 -101q29 0 47 28t18 73l-1 71l-66 3l-8 142l248 19v-343q1 -1 31.5 -7t32.5 -6q1 0 1 -151q0 -2 -47 -3.5t-94 -2.5h-47l-17 44q-6 -5 -17.5 -13.5t-47.5 -22t-74 -13.5 q-42 0 -76.5 11.5t-66 38t-49.5 79t-18 127.5zM489 703q-38 -124 -52 -124q-6 0 -142 39q-150 43 -150 45q0 5 11 34q12 34 27 69q15 36 19 36q5 0 74 -24l142 -50z" />
<glyph unicode="&#xfa;" d="M70 243l1 114l-42 4q-2 11 -4 27.5t-6 57.5q-2 18 -2 30q0 15 3 19l229 16q0 -67 1 -241q0 -101 71 -101q29 0 47 28t18 73l-1 71l-66 3l-8 142l248 19v-343q1 -1 31.5 -7t32.5 -6q1 0 1 -151q0 -2 -47 -3.5t-94 -2.5h-47l-17 44q-6 -5 -17.5 -13.5t-47.5 -22t-74 -13.5 q-42 0 -76.5 11.5t-66 38t-49.5 79t-18 127.5zM138 691l278 112q11 4 12 4q4 -1 20 -37t30 -72q11 -30 11 -35q0 -1 -70 -24l-142.5 -46t-78.5 -23h-1q-7 4 -22 34t-26 58z" />
<glyph unicode="&#xfb;" d="M70 243l1 114l-42 4q-2 11 -4 27.5t-6 57.5q-2 18 -2 30q0 15 3 19l229 16q0 -67 1 -241q0 -101 71 -101q29 0 47 28t18 73l-1 71l-66 3l-8 142l248 19v-343q1 -1 31.5 -7t32.5 -6q1 0 1 -151q0 -2 -47 -3.5t-94 -2.5h-47l-17 44q-6 -5 -17.5 -13.5t-47.5 -22t-74 -13.5 q-42 0 -76.5 11.5t-66 38t-49.5 79t-18 127.5zM514 684q-69 -103 -85 -111l-116 78l-115 -85q-6 1 -16.5 13t-21.5 29l-21 34l-17 28l-7 11q-1 0 17 15l45 34l55 42l47 34q21 16 23 16q8 0 212 -138z" />
<glyph unicode="&#xfc;" d="M70 243l1 114l-42 4q-2 11 -4 27.5t-6 57.5q-2 18 -2 30q0 15 3 19l229 16q0 -67 1 -241q0 -101 71 -101q29 0 47 28t18 73l-1 71l-66 3l-8 142l248 19v-343q1 -1 31.5 -7t32.5 -6q1 0 1 -151q0 -2 -47 -3.5t-94 -2.5h-47l-17 44q-6 -5 -17.5 -13.5t-47.5 -22t-74 -13.5 q-42 0 -76.5 11.5t-66 38t-49.5 79t-18 127.5zM180 764q39 0 69.5 -29t30.5 -66q0 -44 -21.5 -73.5t-66.5 -29.5q-49 0 -76 26q-28 28 -28 75q0 43 26 69q27 28 66 28zM442 764q39 0 69 -29t30 -66q0 -44 -21.5 -73.5t-66.5 -29.5q-49 0 -75 26q-29 28 -29 75q0 43 27 69 q27 28 66 28z" />
<glyph unicode="&#xfd;" horiz-adv-x="693" d="M87 373l-55 3q-2 11 -4 26.5t-6 55.5q-3 19 -3 31q0 13 3 17l299 1l5 -132l-56 -2l76 -141l72 138l-50 3l-2 130q1 1 32 1q10 1 21 1q23 0 51 -1l84 -2q41 -1 70.5 -2t28.5 -1q1 -7 2 -19.5t3 -46.5t2 -62l-55 -3q-271 -534 -332 -625q-6 1 -15.5 3.5t-35.5 10t-47.5 17 t-43.5 24t-31 30.5q-3 0 34 58l73 116q37 59 35 59q-140 230 -155 312zM164 691l278 112q11 4 12 4q4 -1 20 -37t30 -72q11 -30 11 -35q0 -1 -70 -24l-142.5 -46t-78.5 -23h-1q-7 4 -22 34t-26 58z" />
<glyph unicode="&#xfe;" d="M272 714v-8q0 -15 -1 -56l-4 -123l-2 -62q2 4 11.5 12.5t42 20t77.5 11.5q30 0 59.5 -7.5t60.5 -27t55 -48.5t39 -76.5t15 -106.5q0 -74 -20 -127t-54 -79.5t-70.5 -38t-78.5 -11.5q-38 0 -67 8t-39 16l-10 8v-99q97 -11 101 -14q3 -2 3 -37q1 -18 1 -33.5t-1 -30.5v-17 q0 -14 1 -17h-361l-6 136l76 6l-1 622l-74 10l-7 138q-2 0 61.5 9t126.5 16q51 6 62 6h4zM375 142q70 0 70 105q0 48 -18 74.5t-48 26.5q-32 0 -51 -26.5t-19 -73.5q0 -45 18.5 -75.5t47.5 -30.5z" />
<glyph unicode="&#xff;" horiz-adv-x="693" d="M87 373l-55 3q-2 11 -4 26.5t-6 55.5q-3 19 -3 31q0 13 3 17l299 1l5 -132l-56 -2l76 -141l72 138l-50 3l-2 130q1 1 32 1q10 1 21 1q23 0 51 -1l84 -2q41 -1 70.5 -2t28.5 -1q1 -7 2 -19.5t3 -46.5t2 -62l-55 -3q-271 -534 -332 -625q-6 1 -15.5 3.5t-35.5 10t-47.5 17 t-43.5 24t-31 30.5q-3 0 34 58l73 116q37 59 35 59q-140 230 -155 312zM206 764q39 0 69.5 -29t30.5 -66q0 -44 -21.5 -73.5t-66.5 -29.5q-49 0 -76 26q-28 28 -28 75q0 43 26 69q27 28 66 28zM468 764q39 0 69 -29t30 -66q0 -44 -21.5 -73.5t-66.5 -29.5q-49 0 -75 26 q-29 28 -29 75q0 43 27 69q27 28 66 28z" />
<glyph unicode="&#x152;" horiz-adv-x="951" d="M373 717q41 0 75 -7l439 1q4 -6 7 -19t4 -30t2 -38v-20v-20l-2 -39.5t-2 -34t-2 -24.5v-9q0 -2 -68 -3q-35 -1 -53.5 -0.5t-22.5 0.5q-3 0 -6 18t-4.5 37t-1.5 20q-1 2 -56 3h-32q-25 0 -26 -1t-1 -27v-31q1 -56 3 -57q1 0 27 -1t51 -2.5t25 -2.5t1 -15.5t2 -34 t1.5 -40.5t1 -33.5t-0.5 -14.5q-1 0 -29 -1.5t-55 -3.5t-28 -3q-2 -3 -2 -131q4 -2 31 -1.5t58.5 3t31.5 3.5q0 2 14 53.5t14 52.5h2q6 0 39 -3q40 -4 81 -9t41 -6q0 -5 -9.5 -128.5t-10.5 -124.5l-30 1q-29 0 -77 0.5t-103 1t-116 1.5t-106 1q-51 -16 -106 -16 q-159 0 -251.5 92t-92.5 283q0 96 26.5 167.5t75 112.5t108.5 60.5t133 19.5zM371 531q-134 0 -134 -184q0 -81 40.5 -123t94.5 -42q39 0 65 16q10 136 10 219q0 59 -5 92q-27 22 -71 22z" />
<glyph unicode="&#x153;" horiz-adv-x="846" d="M600 522q82 0 149.5 -53.5t70.5 -92.5l-27 -102l-193 -106q15 -18 177 -18q-1 -29 -6.5 -69.5t-10.5 -66.5l-5 -25q-26 -2 -51 -2q-151 0 -245 69q-66 -76 -179 -76q-120 0 -190 66.5t-70 205.5q0 136 71.5 198.5t187.5 62.5q93 0 156 -51q69 60 165 60zM283 348 q-42 0 -61.5 -29t-19.5 -74q0 -42 25.5 -68t55.5 -26q31 0 50 24t19 70q0 43 -17.5 73t-51.5 30zM602 386q-49 0 -72 -34q-13 -20 -13 -40q0 -13 6 -27l122 75q-3 9 -16 17.5t-27 8.5z" />
<glyph unicode="&#x178;" horiz-adv-x="702" d="M37 701l294 -5l11 -137q-1 -2 -48 -2l17 -19l35 -40l17 -20q4 5 11.5 13.5t21.5 26.5l24 30q10 13 9 14t-40 1q-2 1 -2 39v30q1 69 2 70h11q28 0 124 -2q134 -2 139 -4t9 -68q4 -46 4 -61q0 -6 -1 -7q-3 -3 -61 -3l-169 -226q3 -177 3 -187q0 -4 14 -5t29.5 -1t17.5 -2 q3 -4 3 -134q0 -3 -155 -6q-121 -3 -149 -3h-8q-2 1 -3 69q0 34 -0.5 51t0.5 18q1 0 18 2t33.5 4.5t16.5 3.5v193q0 2 -37 53l-76 100q-37 48 -39 48q-9 0 -20 1l-38 6q-19 2 -19 3v17q1 16 1 38.5t0.5 45.5t0.5 39t-1 16zM484 963q39 0 69 -29t30 -66q0 -44 -21.5 -73.5 t-66.5 -29.5q-49 0 -75 26q-29 28 -29 75q0 43 27 70t66 27zM222 963q39 0 69.5 -29t30.5 -66q0 -44 -21.5 -73.5t-66.5 -29.5q-49 0 -76 26q-28 28 -28 75q0 43 26 70q27 27 66 27z" />
<glyph unicode="&#x2c6;" horiz-adv-x="500" d="M450 684q-69 -103 -85 -111l-116 78l-115 -85q-6 1 -16.5 13t-21.5 29l-21 34l-17 28l-7 11q-1 0 17 15l45 34l55 42l47 34q21 16 23 16q8 0 212 -138z" />
<glyph unicode="&#x2dc;" horiz-adv-x="550" d="M51 598q0 3 -0.5 8t-0.5 6q0 8 2 22q1 18 5.5 35t15 38t26 36t41.5 25t60 10q31 0 61.5 -16t51.5 -32.5t31 -16.5q23 1 33 48q99 -8 123 -24q0 -4 -0.5 -10t-3.5 -24t-8 -34.5t-16 -36.5t-25 -34.5t-36.5 -24.5t-50.5 -10q-25 0 -49 10.5t-39 23t-32 23t-30 10.5 q-11 0 -17 -11t-9 -25t-5 -16q-1 -1 -5 -1q-21 0 -123 21z" />
<glyph unicode="&#x2000;" horiz-adv-x="509" />
<glyph unicode="&#x2001;" horiz-adv-x="1018" />
<glyph unicode="&#x2002;" horiz-adv-x="509" />
<glyph unicode="&#x2003;" horiz-adv-x="1018" />
<glyph unicode="&#x2004;" horiz-adv-x="339" />
<glyph unicode="&#x2005;" horiz-adv-x="254" />
<glyph unicode="&#x2006;" horiz-adv-x="169" />
<glyph unicode="&#x2007;" horiz-adv-x="169" />
<glyph unicode="&#x2008;" horiz-adv-x="127" />
<glyph unicode="&#x2009;" horiz-adv-x="203" />
<glyph unicode="&#x200a;" horiz-adv-x="56" />
<glyph unicode="&#x2010;" horiz-adv-x="424" d="M44 313q5 3 167 18q121 11 152 11q11 0 11 -1q1 -2 1 -9q0 -18 -4 -70q-5 -72 -7 -72q-1 0 -150.5 -10.5t-153.5 -10.5q-5 0 -12 71q-5 50 -5 66q0 6 1 7z" />
<glyph unicode="&#x2011;" horiz-adv-x="424" d="M44 313q5 3 167 18q121 11 152 11q11 0 11 -1q1 -2 1 -9q0 -18 -4 -70q-5 -72 -7 -72q-1 0 -150.5 -10.5t-153.5 -10.5q-5 0 -12 71q-5 50 -5 66q0 6 1 7z" />
<glyph unicode="&#x2013;" horiz-adv-x="552" d="M54 333q5 2 217 7q111 3 164 3q49 0 49 -2q1 -2 1 -15q0 -18 -2 -58q-3 -68 -5 -68q-1 0 -210.5 -5.5t-213.5 -5.5t-4 49v22q1 71 4 73z" />
<glyph unicode="&#x2014;" horiz-adv-x="778" d="M54 333q5 2 332 7q171 3 253 3q75 0 75 -2q1 -2 1 -14q0 -17 -2 -55q-3 -62 -5 -62q-1 0 -325.5 -5.5t-328.5 -5.5t-4 46v20q1 66 4 68z" />
<glyph unicode="&#x2018;" horiz-adv-x="324" d="M169 435q-41 0 -71.5 28.5t-37.5 68.5q-9 53 -9 96q0 182 154 209q10 -19 26 -79q-61 -5 -84 -53q-8 -17 -8 -30q0 -16 11 -28q10 -11 26 -11q51 0 72 -25q24 -27 24 -77q0 -44 -29 -71q-30 -28 -74 -28z" />
<glyph unicode="&#x2019;" horiz-adv-x="305" d="M148 843q39 0 68.5 -29.5t35.5 -69.5q9 -53 9 -98q0 -183 -147 -211q-4 9 -10.5 29t-10.5 36l-4 16q59 5 80 53q7 17 7 30q0 17 -10 28q-9 10 -24 10q-49 0 -70 25q-22 29 -22 80q0 45 28 72q29 29 70 29z" />
<glyph unicode="&#x201a;" horiz-adv-x="308" d="M155 198q39 0 68.5 -29.5t35.5 -69.5q9 -58 9 -107q0 -70 -19 -120q-33 -84 -121 -101q-4 9 -10.5 29t-10.5 36l-4 16q56 5 76 57q7 19 7 35q0 20 -11 35q-10 13 -26 13q-49 0 -69 26q-23 28 -23 79q0 45 28 73q29 28 70 28z" />
<glyph unicode="&#x201c;" horiz-adv-x="589" d="M446 441q-39 0 -68.5 29.5t-35.5 69.5q-9 53 -9 98q0 183 147 211q4 -9 10.5 -29t10.5 -36l4 -16q-59 -5 -80 -53q-7 -17 -7 -30q0 -17 10 -28q9 -10 24 -10q49 0 70 -25q22 -29 22 -80q0 -45 -28 -72q-29 -29 -70 -29zM189 435q-41 0 -71.5 28.5t-37.5 68.5q-9 53 -9 96 q0 182 154 209q10 -19 26 -79q-61 -5 -84 -53q-8 -17 -8 -30q0 -16 11 -28q10 -11 26 -11q51 0 72 -25q24 -27 24 -77q0 -44 -29 -71q-30 -28 -74 -28z" />
<glyph unicode="&#x201d;" horiz-adv-x="589" d="M148 843q39 0 68.5 -29.5t35.5 -69.5q9 -53 9 -98q0 -183 -147 -211q-4 9 -10.5 29t-10.5 36l-4 16q59 5 80 53q7 17 7 30q0 17 -10 28q-9 10 -24 10q-49 0 -70 25q-22 29 -22 80q0 45 28 72q29 29 70 29zM405 849q41 0 71.5 -28.5t37.5 -68.5q9 -53 9 -96 q0 -182 -154 -209q-10 19 -26 79q61 5 84 53q8 17 8 30q0 16 -11 28q-10 11 -26 11q-51 0 -72 25q-24 27 -24 77q0 44 29 71q30 28 74 28z" />
<glyph unicode="&#x201e;" horiz-adv-x="589" d="M155 198q39 0 68.5 -29.5t35.5 -69.5q9 -58 9 -107q0 -70 -19 -120q-33 -84 -121 -101q-4 9 -10.5 29t-10.5 36l-4 16q56 5 76 57q7 19 7 35q0 20 -11 35q-10 13 -26 13q-49 0 -69 26q-23 28 -23 79q0 45 28 73q29 28 70 28zM412 190q41 0 71.5 -28.5t37.5 -68.5 q10 -56 10 -102q0 -182 -148 -208q-10 19 -26 79q61 5 81 55q6 15 6 28q0 19 -13 33q-10 11 -26 11q-51 0 -73 25q-23 27 -23 77q0 44 29 71q30 28 74 28z" />
<glyph unicode="&#x2022;" horiz-adv-x="318" d="M169 506q58 0 94.5 -35t36.5 -96q0 -57 -33 -96.5t-98 -39.5q-139 0 -139 137q0 67 38.5 98.5t100.5 31.5z" />
<glyph unicode="&#x2026;" horiz-adv-x="953" d="M155 198q41 0 72.5 -30t31.5 -69q0 -45 -23 -76t-70 -31q-51 0 -79 27q-30 29 -30 78q0 45 28 73q29 28 70 28zM478 198q41 0 72.5 -30t31.5 -69q0 -45 -23 -76t-70 -31q-51 0 -79 27q-30 29 -30 78q0 45 28 73q29 28 70 28zM791 198q41 0 72.5 -30t31.5 -69 q0 -45 -23 -76t-70 -31q-51 0 -79 27q-30 29 -30 78q0 45 28 73q29 28 70 28z" />
<glyph unicode="&#x202f;" horiz-adv-x="203" />
<glyph unicode="&#x2039;" horiz-adv-x="336" d="M209 460h1q5 0 30 -18q29 -21 29 -24q0 -1 -48 -94t-47 -95q0 -1 52 -103.5t52 -105.5t-34.5 -32t-36.5 -28t-86 128.5t-84 132.5t84 120.5t88 118.5z" />
<glyph unicode="&#x203a;" horiz-adv-x="357" d="M129 481q191 -262 191 -266q0 -2 -48 -65l-98 -125q-49 -62 -50 -61l-84 54l126 213q-111 211 -113 216q-1 3 31 16q10 4 29 11z" />
<glyph unicode="&#x205f;" horiz-adv-x="254" />
<glyph unicode="&#x20ac;" horiz-adv-x="688" d="M498 730l28 -2q27 -3 64.5 -10.5t56.5 -19.5q3 -2 3 -37q0 -60 -8 -218l-136 -11q-1 4 -4 11.5t-14 26t-24 33t-35.5 26t-47.5 11.5q-78 0 -101 -100q72 1 108.5 1t37.5 -1q2 -2 4 -29v-16q0 -13 -2 -17t-156 -12v-3q0 -24 3 -42q27 0 63.5 1t45.5 1h18l-5 -73 q-38 -5 -88 -10q42 -55 94 -55q29 0 58 15.5t43 29t22 24.5q23 -15 56 -44l54 -50l21 -22l-8 -16q-5 -11 -26.5 -37t-47.5 -45.5t-72.5 -36t-99.5 -16.5q-97 0 -182.5 60.5t-122.5 170.5q-44 -4 -52 -4h-1l-4 102q0 -1 9.5 -1t27.5 1q-2 26 -2 43q-29 -2 -50 -2q-3 0 -8 40 q-3 22 -3 32q0 9 2 9q27 0 64 1q19 140 100.5 207t186.5 67q73 -1 118 -43z" />
<glyph unicode="&#x2122;" horiz-adv-x="698" d="M332 392l-1 80q0 4 1 4q1 1 8 1h12q7 0 7 1q0 130 -2 136q0 1 -5 1h-11q-6 0 -8 1q-2 2 -3 43v23q0 19 1 20q1 2 53 2t55 -1l46 -65q47 62 50 64q1 1 29 2h29h29q28 -1 28 -2v-40q1 -39 1 -41q0 -5 -28 -5q0 -137 2 -140q1 -2 8 -2t14 -0.5t7 -1.5l4 -85h-38q-37 0 -74 1 t-37 3q0 81 1 81q28 0 28 1l1 97q-1 -1 -9 -12l-14 -20l-8 -10q-20 -1 -29.5 -1t-10.5 1t-14 20l-15 22l1 -22v-46l1 -24q0 -2 15 -4l14 -1l3 -83zM25 699q3 3 140 8q98 4 126 4q12 0 12 -1t1 -66t1 -67q-1 -1 -33.5 -1t-34.5 2l-5 35q-21 -1 -23 -1q-1 -2 -0.5 -14.5 t2 -33.5t2.5 -40.5t2 -33.5l1 -15h11q11 0 20.5 0.5t12.5 -0.5q1 -2 2 -41q1 -19 0.5 -29.5t-0.5 -12.5t-47 -2.5t-93.5 -0.5t-46.5 1v21q0 18 1 39v21l12 1q13 1 25 3t12 4l-3 133l-24 -1q-2 -34 -2 -36h-18q-15 0 -35 1h-20q-2 0 -2 29.5t1 60t3 33.5z" />
</font>
</defs>
</svg>
